<?xml version="1.0" encoding="utf-8" standalone="no"?>
<!DOCTYPE svg PUBLIC "-//W3C//DTD SVG 1.1//EN"
  "http://www.w3.org/Graphics/SVG/1.1/DTD/svg11.dtd">
<!-- Created with matplotlib (http://matplotlib.org/) -->
<svg height="288pt" version="1.1" viewBox="0 0 432 288" width="432pt" xmlns="http://www.w3.org/2000/svg" xmlns:xlink="http://www.w3.org/1999/xlink">
 <defs>
  <style type="text/css">
*{stroke-linecap:butt;stroke-linejoin:round;}
  </style>
 </defs>
 <g id="figure_1">
  <g id="patch_1">
   <path d="M 0 288 
L 432 288 
L 432 0 
L 0 0 
z
" style="fill:#ffffff;"/>
  </g>
  <g id="axes_1">
   <g id="patch_2">
    <path d="M 86.884646 275.905354 
L 359.955354 275.905354 
L 359.955354 2.834646 
L 86.884646 2.834646 
z
" style="fill:#ffffff;"/>
   </g>
   <g id="LineCollection_1"/>
   <g id="matplotlib.axis_1">
    <g id="xtick_1">
     <g id="line2d_1">
      <defs>
       <path d="M 0 0 
L 0 -3.5 
" id="mc7631fa709" style="stroke:#000000;stroke-width:0.8;"/>
      </defs>
      <g>
       <use style="stroke:#000000;stroke-width:0.8;" x="95.619366" xlink:href="#mc7631fa709" y="275.905354"/>
      </g>
     </g>
     <g id="text_1">
      <!-- 0.0 -->
      <defs>
       <path d="M 31.78125 66.40625 
Q 24.171875 66.40625 20.328125 58.90625 
Q 16.5 51.421875 16.5 36.375 
Q 16.5 21.390625 20.328125 13.890625 
Q 24.171875 6.390625 31.78125 6.390625 
Q 39.453125 6.390625 43.28125 13.890625 
Q 47.125 21.390625 47.125 36.375 
Q 47.125 51.421875 43.28125 58.90625 
Q 39.453125 66.40625 31.78125 66.40625 
z
M 31.78125 74.21875 
Q 44.046875 74.21875 50.515625 64.515625 
Q 56.984375 54.828125 56.984375 36.375 
Q 56.984375 17.96875 50.515625 8.265625 
Q 44.046875 -1.421875 31.78125 -1.421875 
Q 19.53125 -1.421875 13.0625 8.265625 
Q 6.59375 17.96875 6.59375 36.375 
Q 6.59375 54.828125 13.0625 64.515625 
Q 19.53125 74.21875 31.78125 74.21875 
z
" id="DejaVuSans-30"/>
       <path d="M 10.6875 12.40625 
L 21 12.40625 
L 21 0 
L 10.6875 0 
z
" id="DejaVuSans-2e"/>
      </defs>
      <g transform="translate(89.258116 285.484104)scale(0.08 -0.08)">
       <use xlink:href="#DejaVuSans-30"/>
       <use x="63.623047" xlink:href="#DejaVuSans-2e"/>
       <use x="95.410156" xlink:href="#DejaVuSans-30"/>
      </g>
     </g>
    </g>
    <g id="xtick_2">
     <g id="line2d_2">
      <g>
       <use style="stroke:#000000;stroke-width:0.8;" x="159.519683" xlink:href="#mc7631fa709" y="275.905354"/>
      </g>
     </g>
     <g id="text_2">
      <!-- 0.5 -->
      <defs>
       <path d="M 10.796875 72.90625 
L 49.515625 72.90625 
L 49.515625 64.59375 
L 19.828125 64.59375 
L 19.828125 46.734375 
Q 21.96875 47.46875 24.109375 47.828125 
Q 26.265625 48.1875 28.421875 48.1875 
Q 40.625 48.1875 47.75 41.5 
Q 54.890625 34.8125 54.890625 23.390625 
Q 54.890625 11.625 47.5625 5.09375 
Q 40.234375 -1.421875 26.90625 -1.421875 
Q 22.3125 -1.421875 17.546875 -0.640625 
Q 12.796875 0.140625 7.71875 1.703125 
L 7.71875 11.625 
Q 12.109375 9.234375 16.796875 8.0625 
Q 21.484375 6.890625 26.703125 6.890625 
Q 35.15625 6.890625 40.078125 11.328125 
Q 45.015625 15.765625 45.015625 23.390625 
Q 45.015625 31 40.078125 35.4375 
Q 35.15625 39.890625 26.703125 39.890625 
Q 22.75 39.890625 18.8125 39.015625 
Q 14.890625 38.140625 10.796875 36.28125 
z
" id="DejaVuSans-35"/>
      </defs>
      <g transform="translate(153.158433 285.484104)scale(0.08 -0.08)">
       <use xlink:href="#DejaVuSans-30"/>
       <use x="63.623047" xlink:href="#DejaVuSans-2e"/>
       <use x="95.410156" xlink:href="#DejaVuSans-35"/>
      </g>
     </g>
    </g>
    <g id="xtick_3">
     <g id="line2d_3">
      <g>
       <use style="stroke:#000000;stroke-width:0.8;" x="223.42" xlink:href="#mc7631fa709" y="275.905354"/>
      </g>
     </g>
     <g id="text_3">
      <!-- 1.0 -->
      <defs>
       <path d="M 12.40625 8.296875 
L 28.515625 8.296875 
L 28.515625 63.921875 
L 10.984375 60.40625 
L 10.984375 69.390625 
L 28.421875 72.90625 
L 38.28125 72.90625 
L 38.28125 8.296875 
L 54.390625 8.296875 
L 54.390625 0 
L 12.40625 0 
z
" id="DejaVuSans-31"/>
      </defs>
      <g transform="translate(217.05875 285.484104)scale(0.08 -0.08)">
       <use xlink:href="#DejaVuSans-31"/>
       <use x="63.623047" xlink:href="#DejaVuSans-2e"/>
       <use x="95.410156" xlink:href="#DejaVuSans-30"/>
      </g>
     </g>
    </g>
    <g id="xtick_4">
     <g id="line2d_4">
      <g>
       <use style="stroke:#000000;stroke-width:0.8;" x="287.320317" xlink:href="#mc7631fa709" y="275.905354"/>
      </g>
     </g>
     <g id="text_4">
      <!-- 1.5 -->
      <g transform="translate(280.959067 285.484104)scale(0.08 -0.08)">
       <use xlink:href="#DejaVuSans-31"/>
       <use x="63.623047" xlink:href="#DejaVuSans-2e"/>
       <use x="95.410156" xlink:href="#DejaVuSans-35"/>
      </g>
     </g>
    </g>
    <g id="xtick_5">
     <g id="line2d_5">
      <g>
       <use style="stroke:#000000;stroke-width:0.8;" x="351.220634" xlink:href="#mc7631fa709" y="275.905354"/>
      </g>
     </g>
     <g id="text_5">
      <!-- 2.0 -->
      <defs>
       <path d="M 19.1875 8.296875 
L 53.609375 8.296875 
L 53.609375 0 
L 7.328125 0 
L 7.328125 8.296875 
Q 12.9375 14.109375 22.625 23.890625 
Q 32.328125 33.6875 34.8125 36.53125 
Q 39.546875 41.84375 41.421875 45.53125 
Q 43.3125 49.21875 43.3125 52.78125 
Q 43.3125 58.59375 39.234375 62.25 
Q 35.15625 65.921875 28.609375 65.921875 
Q 23.96875 65.921875 18.8125 64.3125 
Q 13.671875 62.703125 7.8125 59.421875 
L 7.8125 69.390625 
Q 13.765625 71.78125 18.9375 73 
Q 24.125 74.21875 28.421875 74.21875 
Q 39.75 74.21875 46.484375 68.546875 
Q 53.21875 62.890625 53.21875 53.421875 
Q 53.21875 48.921875 51.53125 44.890625 
Q 49.859375 40.875 45.40625 35.40625 
Q 44.1875 33.984375 37.640625 27.21875 
Q 31.109375 20.453125 19.1875 8.296875 
z
" id="DejaVuSans-32"/>
      </defs>
      <g transform="translate(344.859384 285.484104)scale(0.08 -0.08)">
       <use xlink:href="#DejaVuSans-32"/>
       <use x="63.623047" xlink:href="#DejaVuSans-2e"/>
       <use x="95.410156" xlink:href="#DejaVuSans-30"/>
      </g>
     </g>
    </g>
   </g>
   <g id="matplotlib.axis_2">
    <g id="ytick_1">
     <g id="line2d_6">
      <defs>
       <path d="M 0 0 
L 3.5 0 
" id="mfd864d8e93" style="stroke:#000000;stroke-width:0.8;"/>
      </defs>
      <g>
       <use style="stroke:#000000;stroke-width:0.8;" x="86.884646" xlink:href="#mfd864d8e93" y="267.170634"/>
      </g>
     </g>
     <g id="text_6">
      <!-- 0.0 -->
      <g transform="translate(70.662146 270.210009)scale(0.08 -0.08)">
       <use xlink:href="#DejaVuSans-30"/>
       <use x="63.623047" xlink:href="#DejaVuSans-2e"/>
       <use x="95.410156" xlink:href="#DejaVuSans-30"/>
      </g>
     </g>
    </g>
    <g id="ytick_2">
     <g id="line2d_7">
      <g>
       <use style="stroke:#000000;stroke-width:0.8;" x="86.884646" xlink:href="#mfd864d8e93" y="203.270317"/>
      </g>
     </g>
     <g id="text_7">
      <!-- 0.5 -->
      <g transform="translate(70.662146 206.309692)scale(0.08 -0.08)">
       <use xlink:href="#DejaVuSans-30"/>
       <use x="63.623047" xlink:href="#DejaVuSans-2e"/>
       <use x="95.410156" xlink:href="#DejaVuSans-35"/>
      </g>
     </g>
    </g>
    <g id="ytick_3">
     <g id="line2d_8">
      <g>
       <use style="stroke:#000000;stroke-width:0.8;" x="86.884646" xlink:href="#mfd864d8e93" y="139.37"/>
      </g>
     </g>
     <g id="text_8">
      <!-- 1.0 -->
      <g transform="translate(70.662146 142.409375)scale(0.08 -0.08)">
       <use xlink:href="#DejaVuSans-31"/>
       <use x="63.623047" xlink:href="#DejaVuSans-2e"/>
       <use x="95.410156" xlink:href="#DejaVuSans-30"/>
      </g>
     </g>
    </g>
    <g id="ytick_4">
     <g id="line2d_9">
      <g>
       <use style="stroke:#000000;stroke-width:0.8;" x="86.884646" xlink:href="#mfd864d8e93" y="75.469683"/>
      </g>
     </g>
     <g id="text_9">
      <!-- 1.5 -->
      <g transform="translate(70.662146 78.509058)scale(0.08 -0.08)">
       <use xlink:href="#DejaVuSans-31"/>
       <use x="63.623047" xlink:href="#DejaVuSans-2e"/>
       <use x="95.410156" xlink:href="#DejaVuSans-35"/>
      </g>
     </g>
    </g>
    <g id="ytick_5">
     <g id="line2d_10">
      <g>
       <use style="stroke:#000000;stroke-width:0.8;" x="86.884646" xlink:href="#mfd864d8e93" y="11.569366"/>
      </g>
     </g>
     <g id="text_10">
      <!-- 2.0 -->
      <g transform="translate(70.662146 14.608741)scale(0.08 -0.08)">
       <use xlink:href="#DejaVuSans-32"/>
       <use x="63.623047" xlink:href="#DejaVuSans-2e"/>
       <use x="95.410156" xlink:href="#DejaVuSans-30"/>
      </g>
     </g>
    </g>
   </g>
   <g id="line2d_11">
    <path clip-path="url(#p18851a219a)" d="M 287.320317 139.37 
L 287.243346 136.23456 
L 287.012619 133.106674 
L 286.628692 129.993876 
L 286.09249 126.903667 
L 285.405305 123.843489 
L 284.568791 120.820717 
L 283.584964 117.842632 
L 282.456195 114.916407 
L 281.185202 112.049094 
L 279.775048 109.247599 
L 278.22913 106.518672 
L 276.551172 103.868886 
L 274.745216 101.304626 
L 272.815613 98.832068 
L 270.767012 96.45717 
L 268.604347 94.185653 
L 266.33283 92.022988 
L 263.957932 89.974387 
L 261.485374 88.044784 
L 258.921114 86.238828 
L 256.271328 84.56087 
L 253.542401 83.014952 
L 250.740906 81.604798 
L 247.873593 80.333805 
L 244.947368 79.205036 
L 241.969283 78.221209 
L 238.946511 77.384695 
L 235.886333 76.69751 
L 232.796124 76.161308 
L 229.683326 75.777381 
L 226.55544 75.546654 
L 223.42 75.469683 
L 220.28456 75.546654 
L 217.156674 75.777381 
L 214.043876 76.161308 
L 210.953667 76.69751 
L 207.893489 77.384695 
L 204.870717 78.221209 
L 201.892632 79.205036 
L 198.966407 80.333805 
L 196.099094 81.604798 
L 193.297599 83.014952 
L 190.568672 84.56087 
L 187.918886 86.238828 
L 185.354626 88.044784 
L 182.882068 89.974387 
L 180.50717 92.022988 
L 178.235653 94.185653 
L 176.072988 96.45717 
L 174.024387 98.832068 
L 172.094784 101.304626 
L 170.288828 103.868886 
L 168.61087 106.518672 
L 167.064952 109.247599 
L 165.654798 112.049094 
L 164.383805 114.916407 
L 163.255036 117.842632 
L 162.271209 120.820717 
L 161.434695 123.843489 
L 160.74751 126.903667 
L 160.211308 129.993876 
L 159.827381 133.106674 
L 159.596654 136.23456 
L 159.519683 139.37 
L 159.596654 142.50544 
L 159.827381 145.633326 
L 160.211308 148.746124 
L 160.74751 151.836333 
L 161.434695 154.896511 
L 162.271209 157.919283 
L 163.255036 160.897368 
L 164.383805 163.823593 
L 165.654798 166.690906 
L 167.064952 169.492401 
L 168.61087 172.221328 
L 170.288828 174.871114 
L 172.094784 177.435374 
L 174.024387 179.907932 
L 176.072988 182.28283 
L 178.235653 184.554347 
L 180.50717 186.717012 
L 182.882068 188.765613 
L 185.354626 190.695216 
L 187.918886 192.501172 
L 190.568672 194.17913 
L 193.297599 195.725048 
L 196.099094 197.135202 
L 198.966407 198.406195 
L 201.892632 199.534964 
L 204.870717 200.518791 
L 207.893489 201.355305 
L 210.953667 202.04249 
L 214.043876 202.578692 
L 217.156674 202.962619 
L 220.28456 203.193346 
L 223.42 203.270317 
L 226.55544 203.193346 
L 229.683326 202.962619 
L 232.796124 202.578692 
L 235.886333 202.04249 
L 238.946511 201.355305 
L 241.969283 200.518791 
L 244.947368 199.534964 
L 247.873593 198.406195 
L 250.740906 197.135202 
L 253.542401 195.725048 
L 256.271328 194.17913 
L 258.921114 192.501172 
L 261.485374 190.695216 
L 263.957932 188.765613 
L 266.33283 186.717012 
L 268.604347 184.554347 
L 270.767012 182.28283 
L 272.815613 179.907932 
L 274.745216 177.435374 
L 276.551172 174.871114 
L 278.22913 172.221328 
L 279.775048 169.492401 
L 281.185202 166.690906 
L 282.456195 163.823593 
L 283.584964 160.897368 
L 284.568791 157.919283 
L 285.405305 154.896511 
L 286.09249 151.836333 
L 286.628692 148.746124 
L 287.012619 145.633326 
L 287.243346 142.50544 
L 287.320317 139.37 
L 287.320317 139.37 
" style="fill:none;stroke:#000000;stroke-linecap:round;stroke-width:1.5;"/>
   </g>
   <g id="patch_3">
    <path d="M 86.884646 275.905354 
L 86.884646 2.834646 
" style="fill:none;stroke:#000000;stroke-linecap:square;stroke-linejoin:miter;"/>
   </g>
   <g id="patch_4">
    <path d="M 359.955354 275.905354 
L 359.955354 2.834646 
" style="fill:none;stroke:#000000;stroke-linecap:square;stroke-linejoin:miter;stroke-width:0.8;"/>
   </g>
   <g id="patch_5">
    <path d="M 86.884646 275.905354 
L 359.955354 275.905354 
" style="fill:none;stroke:#000000;stroke-linecap:square;stroke-linejoin:miter;"/>
   </g>
   <g id="patch_6">
    <path d="M 86.884646 2.834646 
L 359.955354 2.834646 
" style="fill:none;stroke:#000000;stroke-linecap:square;stroke-linejoin:miter;stroke-width:0.8;"/>
   </g>
  </g>
 </g>
 <defs>
  <clipPath id="p18851a219a">
   <rect height="273.070709" width="273.070709" x="86.884646" y="2.834646"/>
  </clipPath>
 </defs>
</svg>
