<?xml version="1.0" encoding="utf-8" standalone="no"?>
<!DOCTYPE svg PUBLIC "-//W3C//DTD SVG 1.1//EN"
  "http://www.w3.org/Graphics/SVG/1.1/DTD/svg11.dtd">
<!-- Created with matplotlib (http://matplotlib.org/) -->
<svg height="288pt" version="1.1" viewBox="0 0 432 288" width="432pt" xmlns="http://www.w3.org/2000/svg" xmlns:xlink="http://www.w3.org/1999/xlink">
 <defs>
  <style type="text/css">
*{stroke-linecap:butt;stroke-linejoin:round;}
  </style>
 </defs>
 <g id="figure_1">
  <g id="patch_1">
   <path d="M 0 288 
L 432 288 
L 432 0 
L 0 0 
z
" style="fill:#ffffff;"/>
  </g>
  <g id="axes_1">
   <g id="patch_2">
    <path d="M 32.474646 261.105354 
L 429.165354 261.105354 
L 429.165354 2.834646 
L 32.474646 2.834646 
z
" style="fill:#ffffff;"/>
   </g>
   <g id="matplotlib.axis_1">
    <g id="xtick_1">
     <g id="line2d_1">
      <path clip-path="url(#pb6a17b05e8)" d="M 43.701741 261.105354 
L 43.701741 2.834646 
" style="fill:none;stroke:#000000;stroke-linecap:square;stroke-opacity:0.1;stroke-width:0.5;"/>
     </g>
     <g id="line2d_2">
      <defs>
       <path d="M 0 0 
L 0 -3.5 
" id="m4458eecb3c" style="stroke:#000000;stroke-width:0.8;"/>
      </defs>
      <g>
       <use style="stroke:#000000;stroke-width:0.8;" x="43.701741" xlink:href="#m4458eecb3c" y="261.105354"/>
      </g>
     </g>
     <g id="text_1">
      <!-- 0.0 -->
      <defs>
       <path d="M 31.78125 66.40625 
Q 24.171875 66.40625 20.328125 58.90625 
Q 16.5 51.421875 16.5 36.375 
Q 16.5 21.390625 20.328125 13.890625 
Q 24.171875 6.390625 31.78125 6.390625 
Q 39.453125 6.390625 43.28125 13.890625 
Q 47.125 21.390625 47.125 36.375 
Q 47.125 51.421875 43.28125 58.90625 
Q 39.453125 66.40625 31.78125 66.40625 
z
M 31.78125 74.21875 
Q 44.046875 74.21875 50.515625 64.515625 
Q 56.984375 54.828125 56.984375 36.375 
Q 56.984375 17.96875 50.515625 8.265625 
Q 44.046875 -1.421875 31.78125 -1.421875 
Q 19.53125 -1.421875 13.0625 8.265625 
Q 6.59375 17.96875 6.59375 36.375 
Q 6.59375 54.828125 13.0625 64.515625 
Q 19.53125 74.21875 31.78125 74.21875 
z
" id="DejaVuSans-30"/>
       <path d="M 10.6875 12.40625 
L 21 12.40625 
L 21 0 
L 10.6875 0 
z
" id="DejaVuSans-2e"/>
      </defs>
      <g transform="translate(37.340491 270.684104)scale(0.08 -0.08)">
       <use xlink:href="#DejaVuSans-30"/>
       <use x="63.623047" xlink:href="#DejaVuSans-2e"/>
       <use x="95.410156" xlink:href="#DejaVuSans-30"/>
      </g>
     </g>
    </g>
    <g id="xtick_2">
     <g id="line2d_3">
      <path clip-path="url(#pb6a17b05e8)" d="M 137.260871 261.105354 
L 137.260871 2.834646 
" style="fill:none;stroke:#000000;stroke-linecap:square;stroke-opacity:0.1;stroke-width:0.5;"/>
     </g>
     <g id="line2d_4">
      <g>
       <use style="stroke:#000000;stroke-width:0.8;" x="137.260871" xlink:href="#m4458eecb3c" y="261.105354"/>
      </g>
     </g>
     <g id="text_2">
      <!-- 2.5 -->
      <defs>
       <path d="M 19.1875 8.296875 
L 53.609375 8.296875 
L 53.609375 0 
L 7.328125 0 
L 7.328125 8.296875 
Q 12.9375 14.109375 22.625 23.890625 
Q 32.328125 33.6875 34.8125 36.53125 
Q 39.546875 41.84375 41.421875 45.53125 
Q 43.3125 49.21875 43.3125 52.78125 
Q 43.3125 58.59375 39.234375 62.25 
Q 35.15625 65.921875 28.609375 65.921875 
Q 23.96875 65.921875 18.8125 64.3125 
Q 13.671875 62.703125 7.8125 59.421875 
L 7.8125 69.390625 
Q 13.765625 71.78125 18.9375 73 
Q 24.125 74.21875 28.421875 74.21875 
Q 39.75 74.21875 46.484375 68.546875 
Q 53.21875 62.890625 53.21875 53.421875 
Q 53.21875 48.921875 51.53125 44.890625 
Q 49.859375 40.875 45.40625 35.40625 
Q 44.1875 33.984375 37.640625 27.21875 
Q 31.109375 20.453125 19.1875 8.296875 
z
" id="DejaVuSans-32"/>
       <path d="M 10.796875 72.90625 
L 49.515625 72.90625 
L 49.515625 64.59375 
L 19.828125 64.59375 
L 19.828125 46.734375 
Q 21.96875 47.46875 24.109375 47.828125 
Q 26.265625 48.1875 28.421875 48.1875 
Q 40.625 48.1875 47.75 41.5 
Q 54.890625 34.8125 54.890625 23.390625 
Q 54.890625 11.625 47.5625 5.09375 
Q 40.234375 -1.421875 26.90625 -1.421875 
Q 22.3125 -1.421875 17.546875 -0.640625 
Q 12.796875 0.140625 7.71875 1.703125 
L 7.71875 11.625 
Q 12.109375 9.234375 16.796875 8.0625 
Q 21.484375 6.890625 26.703125 6.890625 
Q 35.15625 6.890625 40.078125 11.328125 
Q 45.015625 15.765625 45.015625 23.390625 
Q 45.015625 31 40.078125 35.4375 
Q 35.15625 39.890625 26.703125 39.890625 
Q 22.75 39.890625 18.8125 39.015625 
Q 14.890625 38.140625 10.796875 36.28125 
z
" id="DejaVuSans-35"/>
      </defs>
      <g transform="translate(130.899621 270.684104)scale(0.08 -0.08)">
       <use xlink:href="#DejaVuSans-32"/>
       <use x="63.623047" xlink:href="#DejaVuSans-2e"/>
       <use x="95.410156" xlink:href="#DejaVuSans-35"/>
      </g>
     </g>
    </g>
    <g id="xtick_3">
     <g id="line2d_5">
      <path clip-path="url(#pb6a17b05e8)" d="M 230.82 261.105354 
L 230.82 2.834646 
" style="fill:none;stroke:#000000;stroke-linecap:square;stroke-opacity:0.1;stroke-width:0.5;"/>
     </g>
     <g id="line2d_6">
      <g>
       <use style="stroke:#000000;stroke-width:0.8;" x="230.82" xlink:href="#m4458eecb3c" y="261.105354"/>
      </g>
     </g>
     <g id="text_3">
      <!-- 5.0 -->
      <g transform="translate(224.45875 270.684104)scale(0.08 -0.08)">
       <use xlink:href="#DejaVuSans-35"/>
       <use x="63.623047" xlink:href="#DejaVuSans-2e"/>
       <use x="95.410156" xlink:href="#DejaVuSans-30"/>
      </g>
     </g>
    </g>
    <g id="xtick_4">
     <g id="line2d_7">
      <path clip-path="url(#pb6a17b05e8)" d="M 324.379129 261.105354 
L 324.379129 2.834646 
" style="fill:none;stroke:#000000;stroke-linecap:square;stroke-opacity:0.1;stroke-width:0.5;"/>
     </g>
     <g id="line2d_8">
      <g>
       <use style="stroke:#000000;stroke-width:0.8;" x="324.379129" xlink:href="#m4458eecb3c" y="261.105354"/>
      </g>
     </g>
     <g id="text_4">
      <!-- 7.5 -->
      <defs>
       <path d="M 8.203125 72.90625 
L 55.078125 72.90625 
L 55.078125 68.703125 
L 28.609375 0 
L 18.3125 0 
L 43.21875 64.59375 
L 8.203125 64.59375 
z
" id="DejaVuSans-37"/>
      </defs>
      <g transform="translate(318.017879 270.684104)scale(0.08 -0.08)">
       <use xlink:href="#DejaVuSans-37"/>
       <use x="63.623047" xlink:href="#DejaVuSans-2e"/>
       <use x="95.410156" xlink:href="#DejaVuSans-35"/>
      </g>
     </g>
    </g>
    <g id="xtick_5">
     <g id="line2d_9">
      <path clip-path="url(#pb6a17b05e8)" d="M 417.938259 261.105354 
L 417.938259 2.834646 
" style="fill:none;stroke:#000000;stroke-linecap:square;stroke-opacity:0.1;stroke-width:0.5;"/>
     </g>
     <g id="line2d_10">
      <g>
       <use style="stroke:#000000;stroke-width:0.8;" x="417.938259" xlink:href="#m4458eecb3c" y="261.105354"/>
      </g>
     </g>
     <g id="text_5">
      <!-- 10.0 -->
      <defs>
       <path d="M 12.40625 8.296875 
L 28.515625 8.296875 
L 28.515625 63.921875 
L 10.984375 60.40625 
L 10.984375 69.390625 
L 28.421875 72.90625 
L 38.28125 72.90625 
L 38.28125 8.296875 
L 54.390625 8.296875 
L 54.390625 0 
L 12.40625 0 
z
" id="DejaVuSans-31"/>
      </defs>
      <g transform="translate(409.032009 270.684104)scale(0.08 -0.08)">
       <use xlink:href="#DejaVuSans-31"/>
       <use x="63.623047" xlink:href="#DejaVuSans-30"/>
       <use x="127.246094" xlink:href="#DejaVuSans-2e"/>
       <use x="159.033203" xlink:href="#DejaVuSans-30"/>
      </g>
     </g>
    </g>
    <g id="text_6">
     <!-- t -->
     <defs>
      <path d="M 18.3125 70.21875 
L 18.3125 54.6875 
L 36.8125 54.6875 
L 36.8125 47.703125 
L 18.3125 47.703125 
L 18.3125 18.015625 
Q 18.3125 11.328125 20.140625 9.421875 
Q 21.96875 7.515625 27.59375 7.515625 
L 36.8125 7.515625 
L 36.8125 0 
L 27.59375 0 
Q 17.1875 0 13.234375 3.875 
Q 9.28125 7.765625 9.28125 18.015625 
L 9.28125 47.703125 
L 2.6875 47.703125 
L 2.6875 54.6875 
L 9.28125 54.6875 
L 9.28125 70.21875 
z
" id="DejaVuSans-74"/>
     </defs>
     <g transform="translate(228.663828 284.706136)scale(0.11 -0.11)">
      <use xlink:href="#DejaVuSans-74"/>
     </g>
    </g>
   </g>
   <g id="matplotlib.axis_2">
    <g id="ytick_1">
     <g id="line2d_11">
      <path clip-path="url(#pb6a17b05e8)" d="M 32.474646 206.255552 
L 429.165354 206.255552 
" style="fill:none;stroke:#000000;stroke-linecap:square;stroke-opacity:0.1;stroke-width:0.5;"/>
     </g>
     <g id="line2d_12">
      <defs>
       <path d="M 0 0 
L 3.5 0 
" id="m9bd034ac22" style="stroke:#000000;stroke-width:0.8;"/>
      </defs>
      <g>
       <use style="stroke:#000000;stroke-width:0.8;" x="32.474646" xlink:href="#m9bd034ac22" y="206.255552"/>
      </g>
     </g>
     <g id="text_7">
      <!-- 0.0 -->
      <g transform="translate(16.252146 209.294927)scale(0.08 -0.08)">
       <use xlink:href="#DejaVuSans-30"/>
       <use x="63.623047" xlink:href="#DejaVuSans-2e"/>
       <use x="95.410156" xlink:href="#DejaVuSans-30"/>
      </g>
     </g>
    </g>
    <g id="ytick_2">
     <g id="line2d_13">
      <path clip-path="url(#pb6a17b05e8)" d="M 32.474646 147.422145 
L 429.165354 147.422145 
" style="fill:none;stroke:#000000;stroke-linecap:square;stroke-opacity:0.1;stroke-width:0.5;"/>
     </g>
     <g id="line2d_14">
      <g>
       <use style="stroke:#000000;stroke-width:0.8;" x="32.474646" xlink:href="#m9bd034ac22" y="147.422145"/>
      </g>
     </g>
     <g id="text_8">
      <!-- 0.3 -->
      <defs>
       <path d="M 40.578125 39.3125 
Q 47.65625 37.796875 51.625 33 
Q 55.609375 28.21875 55.609375 21.1875 
Q 55.609375 10.40625 48.1875 4.484375 
Q 40.765625 -1.421875 27.09375 -1.421875 
Q 22.515625 -1.421875 17.65625 -0.515625 
Q 12.796875 0.390625 7.625 2.203125 
L 7.625 11.71875 
Q 11.71875 9.328125 16.59375 8.109375 
Q 21.484375 6.890625 26.8125 6.890625 
Q 36.078125 6.890625 40.9375 10.546875 
Q 45.796875 14.203125 45.796875 21.1875 
Q 45.796875 27.640625 41.28125 31.265625 
Q 36.765625 34.90625 28.71875 34.90625 
L 20.21875 34.90625 
L 20.21875 43.015625 
L 29.109375 43.015625 
Q 36.375 43.015625 40.234375 45.921875 
Q 44.09375 48.828125 44.09375 54.296875 
Q 44.09375 59.90625 40.109375 62.90625 
Q 36.140625 65.921875 28.71875 65.921875 
Q 24.65625 65.921875 20.015625 65.03125 
Q 15.375 64.15625 9.8125 62.3125 
L 9.8125 71.09375 
Q 15.4375 72.65625 20.34375 73.4375 
Q 25.25 74.21875 29.59375 74.21875 
Q 40.828125 74.21875 47.359375 69.109375 
Q 53.90625 64.015625 53.90625 55.328125 
Q 53.90625 49.265625 50.4375 45.09375 
Q 46.96875 40.921875 40.578125 39.3125 
z
" id="DejaVuSans-33"/>
      </defs>
      <g transform="translate(16.252146 150.46152)scale(0.08 -0.08)">
       <use xlink:href="#DejaVuSans-30"/>
       <use x="63.623047" xlink:href="#DejaVuSans-2e"/>
       <use x="95.410156" xlink:href="#DejaVuSans-33"/>
      </g>
     </g>
    </g>
    <g id="ytick_3">
     <g id="line2d_15">
      <path clip-path="url(#pb6a17b05e8)" d="M 32.474646 88.588737 
L 429.165354 88.588737 
" style="fill:none;stroke:#000000;stroke-linecap:square;stroke-opacity:0.1;stroke-width:0.5;"/>
     </g>
     <g id="line2d_16">
      <g>
       <use style="stroke:#000000;stroke-width:0.8;" x="32.474646" xlink:href="#m9bd034ac22" y="88.588737"/>
      </g>
     </g>
     <g id="text_9">
      <!-- 0.6 -->
      <defs>
       <path d="M 33.015625 40.375 
Q 26.375 40.375 22.484375 35.828125 
Q 18.609375 31.296875 18.609375 23.390625 
Q 18.609375 15.53125 22.484375 10.953125 
Q 26.375 6.390625 33.015625 6.390625 
Q 39.65625 6.390625 43.53125 10.953125 
Q 47.40625 15.53125 47.40625 23.390625 
Q 47.40625 31.296875 43.53125 35.828125 
Q 39.65625 40.375 33.015625 40.375 
z
M 52.59375 71.296875 
L 52.59375 62.3125 
Q 48.875 64.0625 45.09375 64.984375 
Q 41.3125 65.921875 37.59375 65.921875 
Q 27.828125 65.921875 22.671875 59.328125 
Q 17.53125 52.734375 16.796875 39.40625 
Q 19.671875 43.65625 24.015625 45.921875 
Q 28.375 48.1875 33.59375 48.1875 
Q 44.578125 48.1875 50.953125 41.515625 
Q 57.328125 34.859375 57.328125 23.390625 
Q 57.328125 12.15625 50.6875 5.359375 
Q 44.046875 -1.421875 33.015625 -1.421875 
Q 20.359375 -1.421875 13.671875 8.265625 
Q 6.984375 17.96875 6.984375 36.375 
Q 6.984375 53.65625 15.1875 63.9375 
Q 23.390625 74.21875 37.203125 74.21875 
Q 40.921875 74.21875 44.703125 73.484375 
Q 48.484375 72.75 52.59375 71.296875 
z
" id="DejaVuSans-36"/>
      </defs>
      <g transform="translate(16.252146 91.628112)scale(0.08 -0.08)">
       <use xlink:href="#DejaVuSans-30"/>
       <use x="63.623047" xlink:href="#DejaVuSans-2e"/>
       <use x="95.410156" xlink:href="#DejaVuSans-36"/>
      </g>
     </g>
    </g>
    <g id="ytick_4">
     <g id="line2d_17">
      <path clip-path="url(#pb6a17b05e8)" d="M 32.474646 29.75533 
L 429.165354 29.75533 
" style="fill:none;stroke:#000000;stroke-linecap:square;stroke-opacity:0.1;stroke-width:0.5;"/>
     </g>
     <g id="line2d_18">
      <g>
       <use style="stroke:#000000;stroke-width:0.8;" x="32.474646" xlink:href="#m9bd034ac22" y="29.75533"/>
      </g>
     </g>
     <g id="text_10">
      <!-- 0.9 -->
      <defs>
       <path d="M 10.984375 1.515625 
L 10.984375 10.5 
Q 14.703125 8.734375 18.5 7.8125 
Q 22.3125 6.890625 25.984375 6.890625 
Q 35.75 6.890625 40.890625 13.453125 
Q 46.046875 20.015625 46.78125 33.40625 
Q 43.953125 29.203125 39.59375 26.953125 
Q 35.25 24.703125 29.984375 24.703125 
Q 19.046875 24.703125 12.671875 31.3125 
Q 6.296875 37.9375 6.296875 49.421875 
Q 6.296875 60.640625 12.9375 67.421875 
Q 19.578125 74.21875 30.609375 74.21875 
Q 43.265625 74.21875 49.921875 64.515625 
Q 56.59375 54.828125 56.59375 36.375 
Q 56.59375 19.140625 48.40625 8.859375 
Q 40.234375 -1.421875 26.421875 -1.421875 
Q 22.703125 -1.421875 18.890625 -0.6875 
Q 15.09375 0.046875 10.984375 1.515625 
z
M 30.609375 32.421875 
Q 37.25 32.421875 41.125 36.953125 
Q 45.015625 41.5 45.015625 49.421875 
Q 45.015625 57.28125 41.125 61.84375 
Q 37.25 66.40625 30.609375 66.40625 
Q 23.96875 66.40625 20.09375 61.84375 
Q 16.21875 57.28125 16.21875 49.421875 
Q 16.21875 41.5 20.09375 36.953125 
Q 23.96875 32.421875 30.609375 32.421875 
z
" id="DejaVuSans-39"/>
      </defs>
      <g transform="translate(16.252146 32.794705)scale(0.08 -0.08)">
       <use xlink:href="#DejaVuSans-30"/>
       <use x="63.623047" xlink:href="#DejaVuSans-2e"/>
       <use x="95.410156" xlink:href="#DejaVuSans-39"/>
      </g>
     </g>
    </g>
    <g id="text_11">
     <!-- u(t) -->
     <defs>
      <path d="M 8.5 21.578125 
L 8.5 54.6875 
L 17.484375 54.6875 
L 17.484375 21.921875 
Q 17.484375 14.15625 20.5 10.265625 
Q 23.53125 6.390625 29.59375 6.390625 
Q 36.859375 6.390625 41.078125 11.03125 
Q 45.3125 15.671875 45.3125 23.6875 
L 45.3125 54.6875 
L 54.296875 54.6875 
L 54.296875 0 
L 45.3125 0 
L 45.3125 8.40625 
Q 42.046875 3.421875 37.71875 1 
Q 33.40625 -1.421875 27.6875 -1.421875 
Q 18.265625 -1.421875 13.375 4.4375 
Q 8.5 10.296875 8.5 21.578125 
z
M 31.109375 56 
z
" id="DejaVuSans-75"/>
      <path d="M 31 75.875 
Q 24.46875 64.65625 21.28125 53.65625 
Q 18.109375 42.671875 18.109375 31.390625 
Q 18.109375 20.125 21.3125 9.0625 
Q 24.515625 -2 31 -13.1875 
L 23.1875 -13.1875 
Q 15.875 -1.703125 12.234375 9.375 
Q 8.59375 20.453125 8.59375 31.390625 
Q 8.59375 42.28125 12.203125 53.3125 
Q 15.828125 64.359375 23.1875 75.875 
z
" id="DejaVuSans-28"/>
      <path d="M 8.015625 75.875 
L 15.828125 75.875 
Q 23.140625 64.359375 26.78125 53.3125 
Q 30.421875 42.28125 30.421875 31.390625 
Q 30.421875 20.453125 26.78125 9.375 
Q 23.140625 -1.703125 15.828125 -13.1875 
L 8.015625 -13.1875 
Q 14.5 -2 17.703125 9.0625 
Q 20.90625 20.125 20.90625 31.390625 
Q 20.90625 42.671875 17.703125 53.65625 
Q 14.5 64.65625 8.015625 75.875 
z
" id="DejaVuSans-29"/>
     </defs>
     <g transform="translate(9.964489 141.903516)rotate(-90)scale(0.11 -0.11)">
      <use xlink:href="#DejaVuSans-75"/>
      <use x="63.378906" xlink:href="#DejaVuSans-28"/>
      <use x="102.392578" xlink:href="#DejaVuSans-74"/>
      <use x="141.601562" xlink:href="#DejaVuSans-29"/>
     </g>
    </g>
   </g>
   <g id="line2d_19">
    <path clip-path="url(#pb6a17b05e8)" d="M 43.701741 10.145176 
L 45.94716 10.258892 
L 47.06987 10.51971 
L 48.192579 11.017756 
L 49.315289 11.82206 
L 50.437999 12.994991 
L 51.560708 14.591434 
L 52.683418 16.658061 
L 53.806127 19.232724 
L 54.928837 22.343971 
L 56.051546 26.010692 
L 57.548492 31.777886 
L 59.045438 38.541396 
L 60.542384 46.264143 
L 62.413567 57.161893 
L 64.658986 71.803288 
L 67.278642 90.471146 
L 75.137609 147.83462 
L 77.383028 161.97634 
L 79.25421 172.227234 
L 80.751156 179.237518 
L 82.248103 185.076275 
L 83.370812 188.639641 
L 84.493522 191.479101 
L 85.616231 193.582698 
L 86.364704 194.574782 
L 87.113177 195.240382 
L 87.86165 195.583187 
L 88.610123 195.608791 
L 89.358596 195.324662 
L 90.107069 194.7401 
L 90.855542 193.866177 
L 91.604015 192.715671 
L 92.726725 190.503256 
L 93.849435 187.756302 
L 95.346381 183.370259 
L 97.217563 176.957934 
L 99.462982 168.367477 
L 104.328057 149.391991 
L 106.19924 143.039065 
L 107.696186 138.697071 
L 108.818895 135.971172 
L 109.941605 133.761051 
L 111.064314 132.113129 
L 111.812787 131.345932 
L 112.56126 130.854646 
L 113.309733 130.646439 
L 114.058207 130.726587 
L 114.80668 131.098446 
L 115.555153 131.763425 
L 116.303626 132.720988 
L 117.052099 133.968651 
L 118.174808 136.373912 
L 119.297518 139.398676 
L 120.420227 143.010834 
L 121.917173 148.668897 
L 123.414119 155.178324 
L 125.285302 164.294159 
L 127.904958 178.303711 
L 133.518505 208.915923 
L 135.389688 217.970714 
L 137.260871 225.88366 
L 138.757817 231.200239 
L 139.880526 234.515784 
L 141.003236 237.208982 
L 142.125945 239.247476 
L 142.874418 240.230936 
L 143.622891 240.908441 
L 144.371364 241.277412 
L 145.119837 241.337209 
L 145.868311 241.089135 
L 146.616784 240.53643 
L 147.365257 239.68425 
L 148.11373 238.539633 
L 149.236439 236.2943 
L 150.359149 233.448793 
L 151.481858 230.049008 
L 152.978804 224.747633 
L 154.849987 217.095602 
L 157.095406 206.844236 
L 163.831663 175.231113 
L 165.702846 167.859841 
L 167.199792 162.835542 
L 168.322502 159.667385 
L 169.445211 157.068329 
L 170.567921 155.07874 
L 171.316394 154.106879 
L 172.064867 153.427143 
L 172.81334 153.044701 
L 173.561813 152.962803 
L 174.310286 153.182762 
L 175.058759 153.703943 
L 175.807232 154.523771 
L 176.555705 155.637744 
L 177.678415 157.845722 
L 178.801124 160.671334 
L 179.923834 164.076265 
L 181.42078 169.435463 
L 182.917726 175.60887 
L 184.788908 184.236224 
L 187.7828 199.340707 
L 192.273639 222.03798 
L 194.144821 230.461046 
L 195.641767 236.418023 
L 197.138713 241.518064 
L 198.261423 244.703482 
L 199.384133 247.290549 
L 200.506842 249.243395 
L 201.255315 250.179333 
L 202.003788 250.815685 
L 202.752261 251.148749 
L 203.500734 251.176756 
L 204.249207 250.899881 
L 204.99768 250.320242 
L 205.746153 249.441887 
L 206.494626 248.27077 
L 207.617336 245.982763 
L 208.740045 243.088039 
L 209.862755 239.629277 
L 211.359701 234.229008 
L 213.230884 226.412283 
L 215.476303 215.890636 
L 222.961033 179.64152 
L 224.832216 172.18973 
L 226.329162 167.148853 
L 227.451871 163.992578 
L 228.574581 161.423365 
L 229.69729 159.478779 
L 230.445763 158.543893 
L 231.194237 157.905662 
L 231.94271 157.568337 
L 232.691183 157.534241 
L 233.439656 157.803755 
L 234.188129 158.375314 
L 234.936602 159.245419 
L 235.685075 160.408655 
L 236.807784 162.686683 
L 237.930494 165.575154 
L 239.053203 169.033002 
L 240.550149 174.442915 
L 242.421332 182.293472 
L 244.666751 192.894015 
L 252.525718 231.378429 
L 254.396901 238.831194 
L 255.893847 243.850649 
L 257.016556 246.979715 
L 258.139266 249.513618 
L 259.261975 251.416192 
L 260.010448 252.320072 
L 260.758921 252.925422 
L 261.507394 253.228445 
L 262.255867 253.22728 
L 263.004341 252.922006 
L 263.752814 252.31465 
L 264.501287 251.409167 
L 265.24976 250.211419 
L 266.372469 247.884205 
L 267.495179 244.950908 
L 268.617888 241.453932 
L 270.114834 236.002839 
L 271.986017 228.122047 
L 274.231436 217.52161 
L 281.716166 180.985388 
L 283.587349 173.455942 
L 285.084295 168.351816 
L 286.207005 165.147697 
L 287.329714 162.530494 
L 288.452424 160.537979 
L 289.200897 159.57128 
L 289.94937 158.901425 
L 290.697843 158.532734 
L 291.446316 158.4676 
L 292.194789 158.706472 
L 292.943262 159.247857 
L 293.691735 160.088324 
L 294.440208 161.222528 
L 295.562918 163.458286 
L 296.685627 166.306217 
L 297.808337 169.725458 
L 299.305283 175.087222 
L 301.176465 182.883475 
L 303.421884 193.428242 
L 311.280851 231.802544 
L 313.152034 239.247251 
L 314.64898 244.264364 
L 315.771689 247.393745 
L 316.894399 249.929483 
L 318.017109 251.835166 
L 318.765582 252.741696 
L 319.514055 253.350068 
L 320.262528 253.656406 
L 321.011001 253.658766 
L 321.759474 253.357147 
L 322.507947 252.753495 
L 323.25642 251.851686 
L 324.004893 250.657501 
L 325.127602 248.335263 
L 326.250312 245.406274 
L 327.373022 241.912707 
L 328.869968 236.464388 
L 330.74115 228.583594 
L 332.986569 217.977154 
L 340.4713 181.367245 
L 342.342482 173.807149 
L 343.839428 168.675717 
L 344.962138 165.449777 
L 346.084847 162.809836 
L 347.207557 160.79389 
L 347.95603 159.811303 
L 348.704503 159.125431 
L 349.452976 158.740669 
L 350.201449 158.659485 
L 350.949922 158.882406 
L 351.698395 159.408012 
L 352.446868 160.232947 
L 353.195341 161.351943 
L 354.318051 163.565652 
L 355.44076 166.392658 
L 356.56347 169.79232 
L 358.060416 175.130425 
L 359.557362 181.262508 
L 361.428545 189.803958 
L 364.422437 204.679328 
L 368.539038 225.073787 
L 370.410221 233.37297 
L 371.907167 239.247552 
L 373.404113 244.27856 
L 374.526823 247.420022 
L 375.649532 249.969017 
L 376.772242 251.888897 
L 377.520715 252.805293 
L 378.269188 253.423761 
L 379.017661 253.74035 
L 379.766134 253.753037 
L 380.514607 253.461744 
L 381.26308 252.868338 
L 382.011553 251.976617 
L 382.760026 250.792289 
L 383.882736 248.484236 
L 385.005445 245.568501 
L 386.128155 242.08703 
L 387.625101 236.652679 
L 389.496283 228.785275 
L 391.741703 218.188059 
L 399.226433 181.549159 
L 401.097616 173.968253 
L 402.594562 168.817034 
L 403.717271 165.574715 
L 404.839981 162.917309 
L 405.96269 160.883044 
L 406.711163 159.88789 
L 407.459636 159.189254 
L 408.208109 158.791607 
L 408.956582 158.697493 
L 409.705055 158.907515 
L 410.453528 159.420333 
L 411.202001 160.232666 
L 411.950475 161.339321 
L 413.073184 163.53517 
L 414.195894 166.345308 
L 415.318603 169.729324 
L 416.815549 175.048822 
L 417.938259 179.569679 
L 417.938259 179.569679 
" style="fill:none;stroke:#009afa;stroke-linecap:round;"/>
   </g>
   <g id="line2d_20">
    <path clip-path="url(#pb6a17b05e8)" d="M 43.701741 10.144194 
L 45.94716 10.255158 
L 47.06987 10.514582 
L 48.192579 11.011253 
L 49.315289 11.814219 
L 50.437999 12.985873 
L 51.560708 14.581118 
L 52.683418 16.646646 
L 53.806127 19.220326 
L 54.928837 22.33072 
L 56.051546 25.996734 
L 57.548492 31.76323 
L 59.045438 38.52634 
L 60.542384 46.249 
L 62.413567 57.147087 
L 64.658986 71.789526 
L 67.278642 90.459416 
L 75.137609 147.832545 
L 77.383028 161.977364 
L 79.25421 172.230726 
L 80.751156 179.242841 
L 82.248103 185.083253 
L 83.370812 188.647719 
L 84.493522 191.488142 
L 85.616231 193.592551 
L 86.364704 194.585086 
L 87.113177 195.251065 
L 87.86165 195.59417 
L 88.610123 195.619995 
L 89.358596 195.336008 
L 90.107069 194.751507 
L 90.855542 193.877564 
L 91.604015 192.726959 
L 92.726725 190.514244 
L 93.849435 187.766815 
L 95.346381 183.379881 
L 97.217563 176.966061 
L 99.462982 168.373334 
L 104.328057 149.391799 
L 106.19924 143.036405 
L 107.696186 138.692485 
L 108.818895 135.965201 
L 109.941605 133.753772 
L 111.064314 132.104637 
L 111.812787 131.336691 
L 112.56126 130.844712 
L 113.309733 130.63587 
L 114.058207 130.715448 
L 114.80668 131.086802 
L 115.555153 131.751348 
L 116.303626 132.70855 
L 117.052099 133.955928 
L 118.174808 136.360908 
L 119.297518 139.385569 
L 120.420227 142.997805 
L 121.917173 148.65625 
L 123.414119 155.166369 
L 125.285302 164.283477 
L 127.904958 178.29548 
L 133.518505 208.914681 
L 135.389688 217.971999 
L 137.260871 225.887406 
L 138.757817 231.205841 
L 139.880526 234.522681 
L 141.003236 237.21707 
L 142.125945 239.256634 
L 142.874418 240.240733 
L 143.622891 240.918812 
L 144.371364 241.288288 
L 145.119837 241.348519 
L 145.868311 241.100805 
L 146.616784 240.548384 
L 147.365257 239.696409 
L 148.11373 238.551919 
L 149.236439 236.306624 
L 150.359149 233.460975 
L 151.481858 230.060868 
L 152.978804 224.758796 
L 154.849987 217.105485 
L 157.095406 206.852058 
L 163.831663 175.23059 
L 165.702846 167.856837 
L 167.199792 162.830629 
L 168.322502 159.661118 
L 169.445211 157.060795 
L 170.567921 155.070046 
L 171.316394 154.097479 
L 172.064867 153.417096 
L 172.81334 153.03407 
L 173.561813 152.951656 
L 174.310286 153.171169 
L 175.058759 153.691977 
L 175.807232 154.511508 
L 176.555705 155.625262 
L 177.678415 157.83306 
L 178.801124 160.658672 
L 179.923834 164.063784 
L 181.42078 169.423498 
L 182.917726 175.597725 
L 184.788908 184.226496 
L 187.7828 199.334018 
L 192.273639 222.036987 
L 194.144821 230.462567 
L 195.641767 236.421513 
L 197.138713 241.523433 
L 198.261423 244.710172 
L 199.384133 247.298461 
L 200.506842 249.252415 
L 201.255315 250.189021 
L 202.003788 250.825978 
L 202.752261 251.15958 
L 203.500734 251.188056 
L 204.249207 250.911577 
L 204.99768 250.332259 
L 205.746153 249.454148 
L 206.494626 248.283196 
L 207.617336 245.995286 
L 208.740045 243.100479 
L 209.862755 239.641454 
L 211.359701 234.240562 
L 213.230884 226.422644 
L 215.476303 215.899023 
L 222.961033 179.640664 
L 224.832216 172.1864 
L 226.329162 167.143633 
L 227.451871 163.986025 
L 228.574581 161.415572 
L 229.69729 159.469859 
L 230.445763 158.534292 
L 231.194237 157.895441 
L 231.94271 157.55756 
L 232.691183 157.522978 
L 233.439656 157.792078 
L 234.188129 158.363297 
L 234.936602 159.233138 
L 235.685075 160.39619 
L 236.807784 162.67409 
L 237.930494 165.562613 
L 239.053203 169.020695 
L 240.550149 174.431192 
L 242.421332 182.282897 
L 244.666751 192.885369 
L 252.525718 231.379467 
L 254.396901 238.834701 
L 255.893847 243.856035 
L 257.016556 246.986421 
L 258.139266 249.521549 
L 259.261975 251.425234 
L 260.010448 252.329782 
L 260.758921 252.935738 
L 261.507394 253.239302 
L 262.255867 253.238607 
L 263.004341 252.933732 
L 263.752814 252.326699 
L 264.501287 251.421462 
L 265.24976 250.223881 
L 266.372469 247.896769 
L 267.495179 244.963391 
L 268.617888 241.466156 
L 270.114834 236.014445 
L 271.986017 228.132464 
L 274.231436 217.530059 
L 281.716166 180.984599 
L 283.587349 173.452675 
L 285.084295 168.346656 
L 286.207005 165.141202 
L 287.329714 162.522757 
L 288.452424 160.52911 
L 289.200897 159.561727 
L 289.94937 158.891249 
L 290.697843 158.521999 
L 291.446316 158.456375 
L 292.194789 158.69483 
L 292.943262 159.235872 
L 293.691735 160.076072 
L 294.440208 161.210087 
L 295.562918 163.445713 
L 296.685627 166.293691 
L 297.808337 169.713159 
L 299.305283 175.075501 
L 301.176465 182.872894 
L 303.421884 193.419582 
L 311.280851 231.803554 
L 313.152034 239.250731 
L 314.64898 244.269724 
L 315.771689 247.400428 
L 316.894399 249.937393 
L 318.017109 251.844189 
L 318.765582 252.75139 
L 319.514055 253.360371 
L 320.262528 253.667252 
L 321.011001 253.670085 
L 321.759474 253.368867 
L 322.507947 252.765541 
L 323.25642 251.863981 
L 324.004893 250.669967 
L 325.127602 248.347834 
L 326.250312 245.41877 
L 327.373022 241.924948 
L 328.869968 236.476017 
L 330.74115 228.594041 
L 332.986569 217.985639 
L 340.4713 181.366501 
L 342.342482 173.803926 
L 343.839428 168.670599 
L 344.962138 165.443321 
L 346.084847 162.802135 
L 347.207557 160.785054 
L 347.95603 159.80178 
L 348.704503 159.115282 
L 349.452976 158.72996 
L 350.201449 158.648283 
L 350.949922 158.870783 
L 351.698395 159.396042 
L 352.446868 160.220708 
L 353.195341 161.339513 
L 354.318051 163.553084 
L 355.44076 166.380132 
L 356.56347 169.780017 
L 358.060416 175.118693 
L 359.557362 181.251647 
L 361.428545 189.794572 
L 364.422437 204.673052 
L 368.539038 225.07275 
L 370.410221 233.374444 
L 371.907167 239.250996 
L 373.404113 244.283887 
L 374.526823 247.426673 
L 375.649532 249.976898 
L 376.772242 251.897894 
L 377.520715 252.814963 
L 378.269188 253.434043 
L 379.017661 253.751177 
L 379.766134 253.76434 
L 380.514607 253.473452 
L 381.26308 252.880374 
L 382.011553 251.988906 
L 382.760026 250.804751 
L 383.882736 248.496808 
L 385.005445 245.581003 
L 386.128155 242.099282 
L 387.625101 236.664325 
L 389.496283 228.795746 
L 391.741703 218.196575 
L 399.226433 181.548456 
L 401.097616 173.96507 
L 402.594562 168.811954 
L 403.717271 165.568294 
L 404.839981 162.90964 
L 405.96269 160.874238 
L 406.711163 159.878395 
L 407.459636 159.17913 
L 408.208109 158.780919 
L 408.956582 158.68631 
L 409.705055 158.895909 
L 410.453528 159.408377 
L 411.202001 160.220438 
L 411.950475 161.326898 
L 413.073184 163.522603 
L 414.195894 166.33278 
L 415.318603 169.717013 
L 416.815549 175.037076 
L 417.938259 179.558556 
L 417.938259 179.558556 
" style="fill:none;stroke:#e36f47;stroke-linecap:round;"/>
   </g>
   <g id="patch_3">
    <path d="M 32.474646 261.105354 
L 32.474646 2.834646 
" style="fill:none;stroke:#000000;stroke-linecap:square;stroke-linejoin:miter;"/>
   </g>
   <g id="patch_4">
    <path d="M 32.474646 261.105354 
L 429.165354 261.105354 
" style="fill:none;stroke:#000000;stroke-linecap:square;stroke-linejoin:miter;"/>
   </g>
   <g id="legend_1">
    <g id="patch_5">
     <path d="M 356.974104 32.719646 
L 423.565354 32.719646 
Q 425.165354 32.719646 425.165354 31.119646 
L 425.165354 8.434646 
Q 425.165354 6.834646 423.565354 6.834646 
L 356.974104 6.834646 
Q 355.374104 6.834646 355.374104 8.434646 
L 355.374104 31.119646 
Q 355.374104 32.719646 356.974104 32.719646 
z
" style="fill:#ffffff;stroke:#000000;stroke-linejoin:miter;"/>
    </g>
    <g id="line2d_21">
     <path d="M 358.574104 13.313396 
L 374.574104 13.313396 
" style="fill:none;stroke:#009afa;stroke-linecap:square;"/>
    </g>
    <g id="line2d_22"/>
    <g id="text_12">
     <!-- numerical -->
     <defs>
      <path d="M 54.890625 33.015625 
L 54.890625 0 
L 45.90625 0 
L 45.90625 32.71875 
Q 45.90625 40.484375 42.875 44.328125 
Q 39.84375 48.1875 33.796875 48.1875 
Q 26.515625 48.1875 22.3125 43.546875 
Q 18.109375 38.921875 18.109375 30.90625 
L 18.109375 0 
L 9.078125 0 
L 9.078125 54.6875 
L 18.109375 54.6875 
L 18.109375 46.1875 
Q 21.34375 51.125 25.703125 53.5625 
Q 30.078125 56 35.796875 56 
Q 45.21875 56 50.046875 50.171875 
Q 54.890625 44.34375 54.890625 33.015625 
z
" id="DejaVuSans-6e"/>
      <path d="M 52 44.1875 
Q 55.375 50.25 60.0625 53.125 
Q 64.75 56 71.09375 56 
Q 79.640625 56 84.28125 50.015625 
Q 88.921875 44.046875 88.921875 33.015625 
L 88.921875 0 
L 79.890625 0 
L 79.890625 32.71875 
Q 79.890625 40.578125 77.09375 44.375 
Q 74.3125 48.1875 68.609375 48.1875 
Q 61.625 48.1875 57.5625 43.546875 
Q 53.515625 38.921875 53.515625 30.90625 
L 53.515625 0 
L 44.484375 0 
L 44.484375 32.71875 
Q 44.484375 40.625 41.703125 44.40625 
Q 38.921875 48.1875 33.109375 48.1875 
Q 26.21875 48.1875 22.15625 43.53125 
Q 18.109375 38.875 18.109375 30.90625 
L 18.109375 0 
L 9.078125 0 
L 9.078125 54.6875 
L 18.109375 54.6875 
L 18.109375 46.1875 
Q 21.1875 51.21875 25.484375 53.609375 
Q 29.78125 56 35.6875 56 
Q 41.65625 56 45.828125 52.96875 
Q 50 49.953125 52 44.1875 
z
" id="DejaVuSans-6d"/>
      <path d="M 56.203125 29.59375 
L 56.203125 25.203125 
L 14.890625 25.203125 
Q 15.484375 15.921875 20.484375 11.0625 
Q 25.484375 6.203125 34.421875 6.203125 
Q 39.59375 6.203125 44.453125 7.46875 
Q 49.3125 8.734375 54.109375 11.28125 
L 54.109375 2.78125 
Q 49.265625 0.734375 44.1875 -0.34375 
Q 39.109375 -1.421875 33.890625 -1.421875 
Q 20.796875 -1.421875 13.15625 6.1875 
Q 5.515625 13.8125 5.515625 26.8125 
Q 5.515625 40.234375 12.765625 48.109375 
Q 20.015625 56 32.328125 56 
Q 43.359375 56 49.78125 48.890625 
Q 56.203125 41.796875 56.203125 29.59375 
z
M 47.21875 32.234375 
Q 47.125 39.59375 43.09375 43.984375 
Q 39.0625 48.390625 32.421875 48.390625 
Q 24.90625 48.390625 20.390625 44.140625 
Q 15.875 39.890625 15.1875 32.171875 
z
" id="DejaVuSans-65"/>
      <path d="M 41.109375 46.296875 
Q 39.59375 47.171875 37.8125 47.578125 
Q 36.03125 48 33.890625 48 
Q 26.265625 48 22.1875 43.046875 
Q 18.109375 38.09375 18.109375 28.8125 
L 18.109375 0 
L 9.078125 0 
L 9.078125 54.6875 
L 18.109375 54.6875 
L 18.109375 46.1875 
Q 20.953125 51.171875 25.484375 53.578125 
Q 30.03125 56 36.53125 56 
Q 37.453125 56 38.578125 55.875 
Q 39.703125 55.765625 41.0625 55.515625 
z
" id="DejaVuSans-72"/>
      <path d="M 9.421875 54.6875 
L 18.40625 54.6875 
L 18.40625 0 
L 9.421875 0 
z
M 9.421875 75.984375 
L 18.40625 75.984375 
L 18.40625 64.59375 
L 9.421875 64.59375 
z
" id="DejaVuSans-69"/>
      <path d="M 48.78125 52.59375 
L 48.78125 44.1875 
Q 44.96875 46.296875 41.140625 47.34375 
Q 37.3125 48.390625 33.40625 48.390625 
Q 24.65625 48.390625 19.8125 42.84375 
Q 14.984375 37.3125 14.984375 27.296875 
Q 14.984375 17.28125 19.8125 11.734375 
Q 24.65625 6.203125 33.40625 6.203125 
Q 37.3125 6.203125 41.140625 7.25 
Q 44.96875 8.296875 48.78125 10.40625 
L 48.78125 2.09375 
Q 45.015625 0.34375 40.984375 -0.53125 
Q 36.96875 -1.421875 32.421875 -1.421875 
Q 20.0625 -1.421875 12.78125 6.34375 
Q 5.515625 14.109375 5.515625 27.296875 
Q 5.515625 40.671875 12.859375 48.328125 
Q 20.21875 56 33.015625 56 
Q 37.15625 56 41.109375 55.140625 
Q 45.0625 54.296875 48.78125 52.59375 
z
" id="DejaVuSans-63"/>
      <path d="M 34.28125 27.484375 
Q 23.390625 27.484375 19.1875 25 
Q 14.984375 22.515625 14.984375 16.5 
Q 14.984375 11.71875 18.140625 8.90625 
Q 21.296875 6.109375 26.703125 6.109375 
Q 34.1875 6.109375 38.703125 11.40625 
Q 43.21875 16.703125 43.21875 25.484375 
L 43.21875 27.484375 
z
M 52.203125 31.203125 
L 52.203125 0 
L 43.21875 0 
L 43.21875 8.296875 
Q 40.140625 3.328125 35.546875 0.953125 
Q 30.953125 -1.421875 24.3125 -1.421875 
Q 15.921875 -1.421875 10.953125 3.296875 
Q 6 8.015625 6 15.921875 
Q 6 25.140625 12.171875 29.828125 
Q 18.359375 34.515625 30.609375 34.515625 
L 43.21875 34.515625 
L 43.21875 35.40625 
Q 43.21875 41.609375 39.140625 45 
Q 35.0625 48.390625 27.6875 48.390625 
Q 23 48.390625 18.546875 47.265625 
Q 14.109375 46.140625 10.015625 43.890625 
L 10.015625 52.203125 
Q 14.9375 54.109375 19.578125 55.046875 
Q 24.21875 56 28.609375 56 
Q 40.484375 56 46.34375 49.84375 
Q 52.203125 43.703125 52.203125 31.203125 
z
" id="DejaVuSans-61"/>
      <path d="M 9.421875 75.984375 
L 18.40625 75.984375 
L 18.40625 0 
L 9.421875 0 
z
" id="DejaVuSans-6c"/>
     </defs>
     <g transform="translate(380.974104 16.113396)scale(0.08 -0.08)">
      <use xlink:href="#DejaVuSans-6e"/>
      <use x="63.378906" xlink:href="#DejaVuSans-75"/>
      <use x="126.757812" xlink:href="#DejaVuSans-6d"/>
      <use x="224.169922" xlink:href="#DejaVuSans-65"/>
      <use x="285.693359" xlink:href="#DejaVuSans-72"/>
      <use x="326.806641" xlink:href="#DejaVuSans-69"/>
      <use x="354.589844" xlink:href="#DejaVuSans-63"/>
      <use x="409.570312" xlink:href="#DejaVuSans-61"/>
      <use x="470.849609" xlink:href="#DejaVuSans-6c"/>
     </g>
    </g>
    <g id="line2d_23">
     <path d="M 358.574104 25.055896 
L 374.574104 25.055896 
" style="fill:none;stroke:#e36f47;stroke-linecap:square;"/>
    </g>
    <g id="line2d_24"/>
    <g id="text_13">
     <!-- exact soln -->
     <defs>
      <path d="M 54.890625 54.6875 
L 35.109375 28.078125 
L 55.90625 0 
L 45.3125 0 
L 29.390625 21.484375 
L 13.484375 0 
L 2.875 0 
L 24.125 28.609375 
L 4.6875 54.6875 
L 15.28125 54.6875 
L 29.78125 35.203125 
L 44.28125 54.6875 
z
" id="DejaVuSans-78"/>
      <path id="DejaVuSans-20"/>
      <path d="M 44.28125 53.078125 
L 44.28125 44.578125 
Q 40.484375 46.53125 36.375 47.5 
Q 32.28125 48.484375 27.875 48.484375 
Q 21.1875 48.484375 17.84375 46.4375 
Q 14.5 44.390625 14.5 40.28125 
Q 14.5 37.15625 16.890625 35.375 
Q 19.28125 33.59375 26.515625 31.984375 
L 29.59375 31.296875 
Q 39.15625 29.25 43.1875 25.515625 
Q 47.21875 21.78125 47.21875 15.09375 
Q 47.21875 7.46875 41.1875 3.015625 
Q 35.15625 -1.421875 24.609375 -1.421875 
Q 20.21875 -1.421875 15.453125 -0.5625 
Q 10.6875 0.296875 5.421875 2 
L 5.421875 11.28125 
Q 10.40625 8.6875 15.234375 7.390625 
Q 20.0625 6.109375 24.8125 6.109375 
Q 31.15625 6.109375 34.5625 8.28125 
Q 37.984375 10.453125 37.984375 14.40625 
Q 37.984375 18.0625 35.515625 20.015625 
Q 33.0625 21.96875 24.703125 23.78125 
L 21.578125 24.515625 
Q 13.234375 26.265625 9.515625 29.90625 
Q 5.8125 33.546875 5.8125 39.890625 
Q 5.8125 47.609375 11.28125 51.796875 
Q 16.75 56 26.8125 56 
Q 31.78125 56 36.171875 55.265625 
Q 40.578125 54.546875 44.28125 53.078125 
z
" id="DejaVuSans-73"/>
      <path d="M 30.609375 48.390625 
Q 23.390625 48.390625 19.1875 42.75 
Q 14.984375 37.109375 14.984375 27.296875 
Q 14.984375 17.484375 19.15625 11.84375 
Q 23.34375 6.203125 30.609375 6.203125 
Q 37.796875 6.203125 41.984375 11.859375 
Q 46.1875 17.53125 46.1875 27.296875 
Q 46.1875 37.015625 41.984375 42.703125 
Q 37.796875 48.390625 30.609375 48.390625 
z
M 30.609375 56 
Q 42.328125 56 49.015625 48.375 
Q 55.71875 40.765625 55.71875 27.296875 
Q 55.71875 13.875 49.015625 6.21875 
Q 42.328125 -1.421875 30.609375 -1.421875 
Q 18.84375 -1.421875 12.171875 6.21875 
Q 5.515625 13.875 5.515625 27.296875 
Q 5.515625 40.765625 12.171875 48.375 
Q 18.84375 56 30.609375 56 
z
" id="DejaVuSans-6f"/>
     </defs>
     <g transform="translate(380.974104 27.855896)scale(0.08 -0.08)">
      <use xlink:href="#DejaVuSans-65"/>
      <use x="61.507812" xlink:href="#DejaVuSans-78"/>
      <use x="120.6875" xlink:href="#DejaVuSans-61"/>
      <use x="181.966797" xlink:href="#DejaVuSans-63"/>
      <use x="236.947266" xlink:href="#DejaVuSans-74"/>
      <use x="276.15625" xlink:href="#DejaVuSans-20"/>
      <use x="307.943359" xlink:href="#DejaVuSans-73"/>
      <use x="360.042969" xlink:href="#DejaVuSans-6f"/>
      <use x="421.224609" xlink:href="#DejaVuSans-6c"/>
      <use x="449.007812" xlink:href="#DejaVuSans-6e"/>
     </g>
    </g>
   </g>
  </g>
 </g>
 <defs>
  <clipPath id="pb6a17b05e8">
   <rect height="258.270709" width="396.690709" x="32.474646" y="2.834646"/>
  </clipPath>
 </defs>
</svg>
