<?xml version="1.0" encoding="utf-8" standalone="no"?>
<!DOCTYPE svg PUBLIC "-//W3C//DTD SVG 1.1//EN"
  "http://www.w3.org/Graphics/SVG/1.1/DTD/svg11.dtd">
<!-- Created with matplotlib (http://matplotlib.org/) -->
<svg height="288pt" version="1.1" viewBox="0 0 432 288" width="432pt" xmlns="http://www.w3.org/2000/svg" xmlns:xlink="http://www.w3.org/1999/xlink">
 <defs>
  <style type="text/css">
*{stroke-linecap:butt;stroke-linejoin:round;}
  </style>
 </defs>
 <g id="figure_1">
  <g id="patch_1">
   <path d="M 0 288 
L 432 288 
L 432 0 
L 0 0 
z
" style="fill:#ffffff;"/>
  </g>
  <g id="axes_1">
   <g id="patch_2">
    <path d="M 86.884646 275.905354 
L 359.955354 275.905354 
L 359.955354 2.834646 
L 86.884646 2.834646 
z
" style="fill:#ffffff;"/>
   </g>
   <g id="LineCollection_1">
    <path clip-path="url(#p8d4963ac7d)" d="M 278.258597 171.530794 
L 278.076244 171.252905 
L 277.622213 168.702273 
L 277.579645 166.151641 
L 277.585751 163.601008 
L 277.580049 161.050376 
L 277.57759 158.499743 
L 277.574398 155.949111 
L 277.572158 153.398478 
L 277.572739 150.847846 
L 277.576055 148.297214 
L 277.578996 145.746581 
L 277.580196 143.195949 
L 277.58033 140.645316 
L 277.58033 138.094684 
L 277.580196 135.544051 
L 277.578996 132.993419 
L 277.576055 130.442786 
L 277.572739 127.892154 
L 277.572158 125.341522 
L 277.574398 122.790889 
L 277.57759 120.240257 
L 277.580049 117.689624 
L 277.585751 115.138992 
L 277.579645 112.588359 
L 277.622213 110.037727 
L 278.076244 107.487095 
L 278.258597 107.209206 
L 280.80923 107.48702 
L 280.80935 107.487095 
L 283.359862 109.227666 
L 284.418324 110.037727 
L 285.910495 111.323543 
L 287.279235 112.588359 
L 288.461127 113.837305 
L 289.639551 115.138992 
L 291.01176 116.901418 
L 291.609998 117.689624 
L 293.259454 120.240257 
L 293.562392 120.796695 
L 294.651372 122.790889 
L 295.779983 125.341522 
L 296.113024 126.277184 
L 296.704123 127.892154 
L 297.428116 130.442786 
L 297.953306 132.993419 
L 298.295523 135.544051 
L 298.464323 138.094684 
L 298.464323 140.645316 
L 298.295523 143.195949 
L 297.953306 145.746581 
L 297.428116 148.297214 
L 296.704123 150.847846 
L 296.113024 152.462816 
L 295.779983 153.398478 
L 294.651372 155.949111 
L 293.562392 157.943305 
L 293.259454 158.499743 
L 291.609998 161.050376 
L 291.01176 161.838582 
L 289.639551 163.601008 
L 288.461127 164.902695 
L 287.279235 166.151641 
L 285.910495 167.416457 
L 284.418324 168.702273 
L 283.359862 169.512334 
L 280.80935 171.252905 
L 280.80923 171.25298 
L 278.258597 171.530794 
" style="fill:none;stroke:#000004;"/>
   </g>
   <g id="LineCollection_2">
    <path clip-path="url(#p8d4963ac7d)" d="M 270.6067 183.135521 
L 269.459585 181.455435 
L 269.247971 178.904803 
L 269.24453 176.35417 
L 269.243209 173.803538 
L 269.243802 171.252905 
L 269.245156 168.702273 
L 269.245828 166.151641 
L 269.246023 163.601008 
L 269.245803 161.050376 
L 269.245393 158.499743 
L 269.244986 155.949111 
L 269.244756 153.398478 
L 269.244803 150.847846 
L 269.245091 148.297214 
L 269.245467 145.746581 
L 269.245778 143.195949 
L 269.245944 140.645316 
L 269.245944 138.094684 
L 269.245778 135.544051 
L 269.245467 132.993419 
L 269.245091 130.442786 
L 269.244803 127.892154 
L 269.244756 125.341522 
L 269.244986 122.790889 
L 269.245393 120.240257 
L 269.245803 117.689624 
L 269.246023 115.138992 
L 269.245828 112.588359 
L 269.245156 110.037727 
L 269.243802 107.487095 
L 269.243209 104.936462 
L 269.24453 102.38583 
L 269.247971 99.835197 
L 269.459585 97.284565 
L 270.6067 95.604479 
L 273.157333 95.331232 
L 275.707965 95.681705 
L 278.258597 96.227433 
L 280.80923 96.936155 
L 281.860345 97.284565 
L 283.359862 97.807024 
L 285.910495 98.856764 
L 287.941198 99.835197 
L 288.461127 100.103588 
L 291.01176 101.560862 
L 292.306135 102.38583 
L 293.562392 103.258077 
L 295.769289 104.936462 
L 296.113024 105.224991 
L 298.63716 107.487095 
L 298.663657 107.513651 
L 301.071264 110.037727 
L 301.214289 110.207692 
L 303.161799 112.588359 
L 303.764922 113.436023 
L 304.959456 115.138992 
L 306.315554 117.396055 
L 306.491507 117.689624 
L 307.824958 120.240257 
L 308.866187 122.640742 
L 308.932301 122.790889 
L 309.884678 125.341522 
L 310.648739 127.892154 
L 311.241138 130.442786 
L 311.416819 131.46687 
L 311.689798 132.993419 
L 311.990763 135.544051 
L 312.13979 138.094684 
L 312.13979 140.645316 
L 311.990763 143.195949 
L 311.689798 145.746581 
L 311.416819 147.27313 
L 311.241138 148.297214 
L 310.648739 150.847846 
L 309.884678 153.398478 
L 308.932301 155.949111 
L 308.866187 156.099258 
L 307.824958 158.499743 
L 306.491507 161.050376 
L 306.315554 161.343945 
L 304.959456 163.601008 
L 303.764922 165.303977 
L 303.161799 166.151641 
L 301.214289 168.532308 
L 301.071264 168.702273 
L 298.663657 171.226349 
L 298.63716 171.252905 
L 296.113024 173.515009 
L 295.769289 173.803538 
L 293.562392 175.481923 
L 292.306135 176.35417 
L 291.01176 177.179138 
L 288.461127 178.636412 
L 287.941198 178.904803 
L 285.910495 179.883236 
L 283.359862 180.932976 
L 281.860345 181.455435 
L 280.80923 181.803845 
L 278.258597 182.512567 
L 275.707965 183.058295 
L 273.157333 183.408768 
L 270.6067 183.135521 
" style="fill:none;stroke:#0f092c;"/>
   </g>
   <g id="LineCollection_3">
    <path clip-path="url(#p8d4963ac7d)" d="M 265.505435 192.251914 
L 262.954803 191.524591 
L 261.042342 189.107333 
L 260.917421 186.5567 
L 260.913349 145.746581 
L 260.917421 92.1833 
L 261.042342 89.632667 
L 262.954803 87.215409 
L 263.331212 87.082035 
L 265.505435 86.488086 
L 268.056068 85.967224 
L 270.6067 85.575115 
L 273.157333 85.30656 
L 275.707965 85.158344 
L 278.258597 85.128969 
L 280.80923 85.218499 
L 283.359862 85.428371 
L 285.910495 85.761162 
L 288.461127 86.220378 
L 292.000497 87.082035 
L 293.562392 87.526367 
L 296.113024 88.378996 
L 299.242901 89.632667 
L 301.214289 90.532793 
L 304.359921 92.1833 
L 308.432696 94.733932 
L 311.416819 96.951099 
L 311.83727 97.284565 
L 314.759998 99.835197 
L 317.303494 102.38583 
L 319.535774 104.936462 
L 321.619349 107.652686 
L 324.169981 111.543446 
L 324.800618 112.588359 
L 326.720614 116.341191 
L 327.354508 117.689624 
L 328.393773 120.240257 
L 330.033984 125.341522 
L 330.654126 127.892154 
L 331.140212 130.442786 
L 331.499008 132.993419 
L 331.821879 137.418845 
L 331.85441 138.094684 
L 331.821879 141.321155 
L 331.735487 143.195949 
L 331.499008 145.746581 
L 331.140212 148.297214 
L 330.654126 150.847846 
L 330.033984 153.398478 
L 328.393773 158.499743 
L 326.720614 162.398809 
L 326.160905 163.601008 
L 324.169981 167.196554 
L 323.259052 168.702273 
L 321.504325 171.252905 
L 319.068716 174.348459 
L 316.518084 177.162522 
L 313.967451 179.622534 
L 311.416819 181.788901 
L 308.432696 184.006068 
L 304.359921 186.5567 
L 301.214289 188.207207 
L 298.663657 189.358704 
L 296.113024 190.361004 
L 292.000497 191.657965 
L 288.461127 192.519622 
L 285.910495 192.978838 
L 283.359862 193.311629 
L 280.80923 193.521501 
L 278.258597 193.611031 
L 275.707965 193.581656 
L 273.157333 193.43344 
L 270.6067 193.164885 
L 268.056068 192.772776 
L 265.505435 192.251914 
L 265.505435 192.251914 
" style="fill:none;stroke:#2d0b58;"/>
   </g>
   <g id="LineCollection_4">
    <path clip-path="url(#p8d4963ac7d)" d="M 352.226938 176.366658 
L 349.676306 180.14479 
L 347.125673 183.470001 
L 346.693438 184.006068 
L 344.4562 186.5567 
L 341.98656 189.107333 
L 339.246916 191.657965 
L 336.183266 194.208597 
L 332.717203 196.75923 
L 329.271246 198.986967 
L 326.720614 200.46105 
L 324.037354 201.860495 
L 321.619349 203.001893 
L 316.518084 205.049481 
L 311.416819 206.648227 
L 306.315554 207.835968 
L 301.214289 208.62617 
L 296.113024 209.031887 
L 291.01176 209.065129 
L 285.910495 208.728299 
L 280.80923 208.009904 
L 275.707965 206.882402 
L 273.157333 206.18636 
L 270.6067 205.372519 
L 265.505435 203.406472 
L 260.40417 200.954267 
L 255.302905 197.953741 
L 253.779771 196.75923 
L 252.613362 194.208597 
L 252.580676 181.455435 
L 252.613362 84.531403 
L 252.752273 84.066823 
L 253.779771 81.98077 
L 255.302905 80.786259 
L 260.40417 77.785733 
L 265.505435 75.333528 
L 270.6067 73.367481 
L 273.157333 72.55364 
L 278.258597 71.241363 
L 283.359862 70.32178 
L 288.461127 69.796698 
L 293.562392 69.645349 
L 298.663657 69.863849 
L 303.764922 70.459828 
L 308.866187 71.44899 
L 311.416819 72.091773 
L 316.518084 73.690519 
L 319.068716 74.657339 
L 324.037354 76.879505 
L 326.720614 78.27895 
L 329.271246 79.753033 
L 332.717203 81.98077 
L 336.183266 84.531403 
L 339.473776 87.286148 
L 342.024408 89.67065 
L 344.575041 92.315979 
L 347.125673 95.269999 
L 349.676306 98.59521 
L 350.567618 99.835197 
L 352.226938 102.373342 
L 352.226938 102.373342 
" style="fill:none;stroke:#500d6c;"/>
   </g>
   <g id="LineCollection_5">
    <path clip-path="url(#p8d4963ac7d)" d="M 352.226938 231.849163 
L 347.125673 233.418224 
L 342.024408 234.685986 
L 336.923143 235.671116 
L 331.821879 236.378491 
L 326.720614 236.811684 
L 321.619349 236.97686 
L 316.518084 236.876926 
L 311.416819 236.510588 
L 306.315554 235.87105 
L 301.214289 234.946961 
L 296.113024 233.75878 
L 291.01176 232.255008 
L 285.910495 230.455761 
L 280.80923 228.327413 
L 275.707965 225.842124 
L 270.6067 222.968329 
L 265.505435 219.656093 
L 262.096238 217.164289 
L 260.40417 215.897091 
L 255.302905 211.550713 
L 250.201641 206.540181 
L 246.094762 201.860495 
L 245.100376 200.436205 
L 244.497884 199.309862 
L 244.249989 196.75923 
L 244.249989 81.98077 
L 244.497884 79.430138 
L 245.100376 78.303795 
L 246.094762 76.879505 
L 248.28429 74.328873 
L 250.634617 71.77824 
L 253.169293 69.227608 
L 255.909494 66.676976 
L 258.877496 64.126343 
L 260.40417 62.842909 
L 265.597808 59.025078 
L 269.516685 56.474446 
L 270.6067 55.771671 
L 275.707965 52.897876 
L 280.80923 50.412587 
L 285.910495 48.284239 
L 291.01176 46.484992 
L 296.113024 44.98122 
L 301.600188 43.721284 
L 306.315554 42.86895 
L 311.416819 42.229412 
L 316.518084 41.863074 
L 321.619349 41.76314 
L 326.720614 41.928316 
L 331.821879 42.361509 
L 336.923143 43.068884 
L 342.024408 44.054014 
L 347.125673 45.321776 
L 352.226938 46.890837 
L 352.226938 46.890837 
" style="fill:none;stroke:#6d186e;"/>
   </g>
   <g id="LineCollection_6">
    <path clip-path="url(#p8d4963ac7d)" d="M 286.73885 268.176938 
L 283.359862 265.513807 
L 278.258597 261.191425 
L 270.6067 253.96768 
L 264.801737 247.771879 
L 262.565306 245.221246 
L 257.853538 239.486048 
L 252.686988 232.468084 
L 249.283671 227.366819 
L 246.137751 222.265554 
L 244.653613 219.714922 
L 241.882262 214.613657 
L 239.337902 209.512392 
L 237.007247 204.411127 
L 236.100737 201.860495 
L 235.91223 199.309862 
L 235.917602 104.936462 
L 235.91223 79.430138 
L 236.100737 76.879505 
L 237.448478 73.27309 
L 240.581496 66.676976 
L 243.240417 61.575711 
L 246.137751 56.474446 
L 249.283671 51.373181 
L 250.955684 48.822549 
L 255.302905 42.605966 
L 260.416885 36.069386 
L 265.505435 30.155035 
L 270.6067 24.77232 
L 275.707965 19.852199 
L 280.80923 15.342866 
L 286.73885 10.563062 
L 286.73885 10.563062 
" style="fill:none;stroke:#8e2469;"/>
   </g>
   <g id="LineCollection_7">
    <path clip-path="url(#p8d4963ac7d)" d="M 240.723505 268.176938 
L 240.029177 265.626306 
L 239.999111 265.518035 
L 239.357076 263.075673 
L 238.697577 260.525041 
L 238.050102 257.974408 
L 237.448478 255.565437 
L 237.415065 255.423776 
L 236.801555 252.873143 
L 236.200408 250.322511 
L 235.611533 247.771879 
L 235.034822 245.221246 
L 234.897846 244.624091 
L 234.477116 242.670614 
L 233.934161 240.119981 
L 233.40376 237.569349 
L 232.885829 235.018716 
L 232.380269 232.468084 
L 232.347214 232.305497 
L 231.894548 229.917451 
L 231.422202 227.366819 
L 230.962659 224.816187 
L 230.515855 222.265554 
L 230.08172 219.714922 
L 229.796581 218.024969 
L 229.662344 217.164289 
L 229.260393 214.613657 
L 228.871632 212.063024 
L 228.496128 209.512392 
L 228.134022 206.96176 
L 227.785443 204.411127 
L 227.59249 201.860495 
L 227.587373 199.309862 
L 227.586508 196.75923 
L 227.586093 194.208597 
L 227.58593 191.657965 
L 227.58588 189.107333 
L 227.585871 186.5567 
L 227.585874 184.006068 
L 227.585876 181.455435 
L 227.585876 178.904803 
L 227.585874 176.35417 
L 227.585871 173.803538 
L 227.585868 171.252905 
L 227.585867 168.702273 
L 227.585867 166.151641 
L 227.585868 163.601008 
L 227.58587 161.050376 
L 227.585874 158.499743 
L 227.585877 155.949111 
L 227.585881 153.398478 
L 227.585884 150.847846 
L 227.585887 148.297214 
L 227.58589 145.746581 
L 227.585891 143.195949 
L 227.585892 140.645316 
L 227.585892 138.094684 
L 227.585891 135.544051 
L 227.58589 132.993419 
L 227.585887 130.442786 
L 227.585884 127.892154 
L 227.585881 125.341522 
L 227.585877 122.790889 
L 227.585874 120.240257 
L 227.58587 117.689624 
L 227.585868 115.138992 
L 227.585867 112.588359 
L 227.585867 110.037727 
L 227.585868 107.487095 
L 227.585871 104.936462 
L 227.585874 102.38583 
L 227.585876 99.835197 
L 227.585876 97.284565 
L 227.585874 94.733932 
L 227.585871 92.1833 
L 227.58588 89.632667 
L 227.58593 87.082035 
L 227.586093 84.531403 
L 227.586508 81.98077 
L 227.587373 79.430138 
L 227.59249 76.879505 
L 227.785443 74.328873 
L 228.134022 71.77824 
L 228.496128 69.227608 
L 228.871632 66.676976 
L 229.260393 64.126343 
L 229.662344 61.575711 
L 229.796581 60.715031 
L 230.08172 59.025078 
L 230.515855 56.474446 
L 230.962659 53.923813 
L 231.422202 51.373181 
L 231.894548 48.822549 
L 232.347214 46.434503 
L 232.380269 46.271916 
L 232.885829 43.721284 
L 233.40376 41.170651 
L 233.934161 38.620019 
L 234.477116 36.069386 
L 234.897846 34.115909 
L 235.034822 33.518754 
L 235.611533 30.968121 
L 236.200408 28.417489 
L 236.801555 25.866857 
L 237.415065 23.316224 
L 237.448478 23.174563 
L 238.050102 20.765592 
L 238.697577 18.214959 
L 239.357076 15.664327 
L 239.999111 13.221965 
L 240.029177 13.113694 
L 240.723505 10.563062 
" style="fill:none;stroke:#ac305d;"/>
   </g>
   <g id="LineCollection_8">
    <path clip-path="url(#p8d4963ac7d)" d="M 206.116495 268.176938 
L 206.810823 265.626306 
L 206.840889 265.518035 
L 207.482924 263.075673 
L 208.142423 260.525041 
L 208.789898 257.974408 
L 209.391522 255.565437 
L 209.424935 255.423776 
L 210.038445 252.873143 
L 210.639592 250.322511 
L 211.228467 247.771879 
L 211.805178 245.221246 
L 211.942154 244.624091 
L 212.362884 242.670614 
L 212.905839 240.119981 
L 213.43624 237.569349 
L 213.954171 235.018716 
L 214.459731 232.468084 
L 214.492786 232.305497 
L 214.945452 229.917451 
L 215.417798 227.366819 
L 215.877341 224.816187 
L 216.324145 222.265554 
L 216.75828 219.714922 
L 217.043419 218.024969 
L 217.177656 217.164289 
L 217.579607 214.613657 
L 217.968368 212.063024 
L 218.343872 209.512392 
L 218.705978 206.96176 
L 219.054557 204.411127 
L 219.24751 201.860495 
L 219.252627 199.309862 
L 219.253492 196.75923 
L 219.253907 194.208597 
L 219.25407 191.657965 
L 219.25412 189.107333 
L 219.254129 186.5567 
L 219.254126 184.006068 
L 219.254124 181.455435 
L 219.254124 178.904803 
L 219.254126 176.35417 
L 219.254129 173.803538 
L 219.254132 171.252905 
L 219.254133 168.702273 
L 219.254133 166.151641 
L 219.254132 163.601008 
L 219.25413 161.050376 
L 219.254126 158.499743 
L 219.254123 155.949111 
L 219.254119 153.398478 
L 219.254116 150.847846 
L 219.254113 148.297214 
L 219.25411 145.746581 
L 219.254109 143.195949 
L 219.254108 140.645316 
L 219.254108 138.094684 
L 219.254109 135.544051 
L 219.25411 132.993419 
L 219.254113 130.442786 
L 219.254116 127.892154 
L 219.254119 125.341522 
L 219.254123 122.790889 
L 219.254126 120.240257 
L 219.25413 117.689624 
L 219.254132 115.138992 
L 219.254133 112.588359 
L 219.254133 110.037727 
L 219.254132 107.487095 
L 219.254129 104.936462 
L 219.254126 102.38583 
L 219.254124 99.835197 
L 219.254124 97.284565 
L 219.254126 94.733932 
L 219.254129 92.1833 
L 219.25412 89.632667 
L 219.25407 87.082035 
L 219.253907 84.531403 
L 219.253492 81.98077 
L 219.252627 79.430138 
L 219.24751 76.879505 
L 219.054557 74.328873 
L 218.705978 71.77824 
L 218.343872 69.227608 
L 217.968368 66.676976 
L 217.579607 64.126343 
L 217.177656 61.575711 
L 217.043419 60.715031 
L 216.75828 59.025078 
L 216.324145 56.474446 
L 215.877341 53.923813 
L 215.417798 51.373181 
L 214.945452 48.822549 
L 214.492786 46.434503 
L 214.459731 46.271916 
L 213.954171 43.721284 
L 213.43624 41.170651 
L 212.905839 38.620019 
L 212.362884 36.069386 
L 211.942154 34.115909 
L 211.805178 33.518754 
L 211.228467 30.968121 
L 210.639592 28.417489 
L 210.038445 25.866857 
L 209.424935 23.316224 
L 209.391522 23.174563 
L 208.789898 20.765592 
L 208.142423 18.214959 
L 207.482924 15.664327 
L 206.840889 13.221965 
L 206.810823 13.113694 
L 206.116495 10.563062 
" style="fill:none;stroke:#c93f4b;"/>
   </g>
   <g id="LineCollection_9">
    <path clip-path="url(#p8d4963ac7d)" d="M 160.10115 268.176938 
L 163.480138 265.513807 
L 168.581403 261.191425 
L 176.2333 253.96768 
L 182.038263 247.771879 
L 184.274694 245.221246 
L 188.986462 239.486048 
L 194.153012 232.468084 
L 197.556329 227.366819 
L 200.702249 222.265554 
L 202.186387 219.714922 
L 204.957738 214.613657 
L 207.502098 209.512392 
L 209.832753 204.411127 
L 210.739263 201.860495 
L 210.92777 199.309862 
L 210.922398 104.936462 
L 210.92777 79.430138 
L 210.739263 76.879505 
L 209.391522 73.27309 
L 206.258504 66.676976 
L 203.599583 61.575711 
L 200.702249 56.474446 
L 197.556329 51.373181 
L 195.884316 48.822549 
L 191.537095 42.605966 
L 186.423115 36.069386 
L 181.334565 30.155035 
L 176.2333 24.77232 
L 171.132035 19.852199 
L 166.03077 15.342866 
L 160.10115 10.563062 
L 160.10115 10.563062 
" style="fill:none;stroke:#e15635;"/>
   </g>
   <g id="LineCollection_10">
    <path clip-path="url(#p8d4963ac7d)" d="M 94.613062 231.849163 
L 99.714327 233.418224 
L 104.815592 234.685986 
L 109.916857 235.671116 
L 115.018121 236.378491 
L 120.119386 236.811684 
L 125.220651 236.97686 
L 130.321916 236.876926 
L 135.423181 236.510588 
L 140.524446 235.87105 
L 145.625711 234.946961 
L 150.726976 233.75878 
L 155.82824 232.255008 
L 160.929505 230.455761 
L 166.03077 228.327413 
L 171.132035 225.842124 
L 176.2333 222.968329 
L 181.334565 219.656093 
L 184.743762 217.164289 
L 186.43583 215.897091 
L 191.537095 211.550713 
L 196.638359 206.540181 
L 200.745238 201.860495 
L 201.739624 200.436205 
L 202.342116 199.309862 
L 202.590011 196.75923 
L 202.590011 81.98077 
L 202.342116 79.430138 
L 201.739624 78.303795 
L 200.745238 76.879505 
L 198.55571 74.328873 
L 196.205383 71.77824 
L 193.670707 69.227608 
L 190.930506 66.676976 
L 187.962504 64.126343 
L 186.43583 62.842909 
L 181.242192 59.025078 
L 177.323315 56.474446 
L 176.2333 55.771671 
L 171.132035 52.897876 
L 166.03077 50.412587 
L 160.929505 48.284239 
L 155.82824 46.484992 
L 150.726976 44.98122 
L 145.239812 43.721284 
L 140.524446 42.86895 
L 135.423181 42.229412 
L 130.321916 41.863074 
L 125.220651 41.76314 
L 120.119386 41.928316 
L 115.018121 42.361509 
L 109.916857 43.068884 
L 104.815592 44.054014 
L 99.714327 45.321776 
L 94.613062 46.890837 
L 94.613062 46.890837 
" style="fill:none;stroke:#f2751c;"/>
   </g>
   <g id="LineCollection_11">
    <path clip-path="url(#p8d4963ac7d)" d="M 94.613062 176.366658 
L 97.163694 180.14479 
L 99.714327 183.470001 
L 100.146562 184.006068 
L 102.3838 186.5567 
L 104.85344 189.107333 
L 107.593084 191.657965 
L 110.656734 194.208597 
L 114.122797 196.75923 
L 117.568754 198.986967 
L 120.119386 200.46105 
L 122.802646 201.860495 
L 125.220651 203.001893 
L 130.321916 205.049481 
L 135.423181 206.648227 
L 140.524446 207.835968 
L 145.625711 208.62617 
L 150.726976 209.031887 
L 155.82824 209.065129 
L 160.929505 208.728299 
L 166.03077 208.009904 
L 171.132035 206.882402 
L 173.682667 206.18636 
L 176.2333 205.372519 
L 181.334565 203.406472 
L 186.43583 200.954267 
L 191.537095 197.953741 
L 193.060229 196.75923 
L 194.226638 194.208597 
L 194.259324 181.455435 
L 194.226638 84.531403 
L 194.087727 84.066823 
L 193.060229 81.98077 
L 191.537095 80.786259 
L 186.43583 77.785733 
L 181.334565 75.333528 
L 176.2333 73.367481 
L 173.682667 72.55364 
L 168.581403 71.241363 
L 163.480138 70.32178 
L 158.378873 69.796698 
L 153.277608 69.645349 
L 148.176343 69.863849 
L 143.075078 70.459828 
L 137.973813 71.44899 
L 135.423181 72.091773 
L 130.321916 73.690519 
L 127.771284 74.657339 
L 122.802646 76.879505 
L 120.119386 78.27895 
L 117.568754 79.753033 
L 114.122797 81.98077 
L 110.656734 84.531403 
L 107.366224 87.286148 
L 104.815592 89.67065 
L 102.264959 92.315979 
L 99.714327 95.269999 
L 97.163694 98.59521 
L 96.272382 99.835197 
L 94.613062 102.373342 
L 94.613062 102.373342 
" style="fill:none;stroke:#fa9508;"/>
   </g>
   <g id="LineCollection_12">
    <path clip-path="url(#p8d4963ac7d)" d="M 155.82824 191.92972 
L 158.378873 192.519622 
L 160.929505 192.978838 
L 163.480138 193.311629 
L 166.03077 193.521501 
L 168.581403 193.611031 
L 171.132035 193.581656 
L 173.682667 193.43344 
L 176.2333 193.164885 
L 178.783932 192.772776 
L 181.334565 192.251914 
L 183.885197 191.524591 
L 185.797658 189.107333 
L 185.922579 186.5567 
L 185.926651 145.746581 
L 185.922579 92.1833 
L 185.797658 89.632667 
L 183.885197 87.215409 
L 183.508788 87.082035 
L 181.334565 86.488086 
L 178.783932 85.967224 
L 176.2333 85.575115 
L 173.682667 85.30656 
L 171.132035 85.158344 
L 168.581403 85.128969 
L 166.03077 85.218499 
L 163.480138 85.428371 
L 160.929505 85.761162 
L 158.378873 86.220378 
L 154.839503 87.082035 
L 153.277608 87.526367 
L 150.726976 88.378996 
L 147.597099 89.632667 
L 145.625711 90.532793 
L 142.480079 92.1833 
L 138.407304 94.733932 
L 135.423181 96.951099 
L 135.00273 97.284565 
L 132.080002 99.835197 
L 129.536506 102.38583 
L 127.304226 104.936462 
L 125.220651 107.652686 
L 122.670019 111.543446 
L 122.039382 112.588359 
L 120.119386 116.341191 
L 119.485492 117.689624 
L 118.446227 120.240257 
L 116.806016 125.341522 
L 116.185874 127.892154 
L 115.699788 130.442786 
L 115.340992 132.993419 
L 115.018121 137.418845 
L 114.98559 138.094684 
L 115.018121 141.321155 
L 115.104513 143.195949 
L 115.340992 145.746581 
L 115.699788 148.297214 
L 116.185874 150.847846 
L 116.806016 153.398478 
L 118.446227 158.499743 
L 120.119386 162.398809 
L 120.679095 163.601008 
L 122.670019 167.196554 
L 123.580948 168.702273 
L 125.335675 171.252905 
L 127.771284 174.348459 
L 130.321916 177.162522 
L 132.872549 179.622534 
L 135.423181 181.788901 
L 138.407304 184.006068 
L 142.480079 186.5567 
L 145.625711 188.207207 
L 148.176343 189.358704 
L 150.726976 190.361004 
L 154.839503 191.657965 
L 155.82824 191.92972 
L 155.82824 191.92972 
" style="fill:none;stroke:#fbbc22;"/>
   </g>
   <g id="LineCollection_13">
    <path clip-path="url(#p8d4963ac7d)" d="M 166.03077 181.803845 
L 168.581403 182.512567 
L 171.132035 183.058295 
L 173.682667 183.408768 
L 176.2333 183.135521 
L 177.380415 181.455435 
L 177.592029 178.904803 
L 177.59547 176.35417 
L 177.596791 173.803538 
L 177.596198 171.252905 
L 177.594844 168.702273 
L 177.594172 166.151641 
L 177.593977 163.601008 
L 177.594197 161.050376 
L 177.594607 158.499743 
L 177.595014 155.949111 
L 177.595244 153.398478 
L 177.595197 150.847846 
L 177.594909 148.297214 
L 177.594533 145.746581 
L 177.594222 143.195949 
L 177.594056 140.645316 
L 177.594056 138.094684 
L 177.594222 135.544051 
L 177.594533 132.993419 
L 177.594909 130.442786 
L 177.595197 127.892154 
L 177.595244 125.341522 
L 177.595014 122.790889 
L 177.594607 120.240257 
L 177.594197 117.689624 
L 177.593977 115.138992 
L 177.594172 112.588359 
L 177.594844 110.037727 
L 177.596198 107.487095 
L 177.596791 104.936462 
L 177.59547 102.38583 
L 177.592029 99.835197 
L 177.380415 97.284565 
L 176.2333 95.604479 
L 173.682667 95.331232 
L 171.132035 95.681705 
L 168.581403 96.227433 
L 166.03077 96.936155 
L 164.979655 97.284565 
L 163.480138 97.807024 
L 160.929505 98.856764 
L 158.898802 99.835197 
L 158.378873 100.103588 
L 155.82824 101.560862 
L 154.533865 102.38583 
L 153.277608 103.258077 
L 151.070711 104.936462 
L 150.726976 105.224991 
L 148.20284 107.487095 
L 148.176343 107.513651 
L 145.768736 110.037727 
L 145.625711 110.207692 
L 143.678201 112.588359 
L 143.075078 113.436023 
L 141.880544 115.138992 
L 140.524446 117.396055 
L 140.348493 117.689624 
L 139.015042 120.240257 
L 137.973813 122.640742 
L 137.907699 122.790889 
L 136.955322 125.341522 
L 136.191261 127.892154 
L 135.598862 130.442786 
L 135.423181 131.46687 
L 135.150202 132.993419 
L 134.849237 135.544051 
L 134.70021 138.094684 
L 134.70021 140.645316 
L 134.849237 143.195949 
L 135.150202 145.746581 
L 135.423181 147.27313 
L 135.598862 148.297214 
L 136.191261 150.847846 
L 136.955322 153.398478 
L 137.907699 155.949111 
L 137.973813 156.099258 
L 139.015042 158.499743 
L 140.348493 161.050376 
L 140.524446 161.343945 
L 141.880544 163.601008 
L 143.075078 165.303977 
L 143.678201 166.151641 
L 145.625711 168.532308 
L 145.768736 168.702273 
L 148.176343 171.226349 
L 148.20284 171.252905 
L 150.726976 173.515009 
L 151.070711 173.803538 
L 153.277608 175.481923 
L 154.533865 176.35417 
L 155.82824 177.179138 
L 158.378873 178.636412 
L 158.898802 178.904803 
L 160.929505 179.883236 
L 163.480138 180.932976 
L 164.979655 181.455435 
L 166.03077 181.803845 
" style="fill:none;stroke:#f3e259;"/>
   </g>
   <g id="LineCollection_14">
    <path clip-path="url(#p8d4963ac7d)" d="M 166.03077 171.25298 
L 168.581403 171.530794 
L 168.763756 171.252905 
L 169.217787 168.702273 
L 169.260355 166.151641 
L 169.254249 163.601008 
L 169.259951 161.050376 
L 169.26241 158.499743 
L 169.265602 155.949111 
L 169.267842 153.398478 
L 169.267261 150.847846 
L 169.263945 148.297214 
L 169.261004 145.746581 
L 169.259804 143.195949 
L 169.25967 140.645316 
L 169.25967 138.094684 
L 169.259804 135.544051 
L 169.261004 132.993419 
L 169.263945 130.442786 
L 169.267261 127.892154 
L 169.267842 125.341522 
L 169.265602 122.790889 
L 169.26241 120.240257 
L 169.259951 117.689624 
L 169.254249 115.138992 
L 169.260355 112.588359 
L 169.217787 110.037727 
L 168.763756 107.487095 
L 168.581403 107.209206 
L 166.03077 107.48702 
L 166.03065 107.487095 
L 163.480138 109.227666 
L 162.421676 110.037727 
L 160.929505 111.323543 
L 159.560765 112.588359 
L 158.378873 113.837305 
L 157.200449 115.138992 
L 155.82824 116.901418 
L 155.230002 117.689624 
L 153.580546 120.240257 
L 153.277608 120.796695 
L 152.188628 122.790889 
L 151.060017 125.341522 
L 150.726976 126.277184 
L 150.135877 127.892154 
L 149.411884 130.442786 
L 148.886694 132.993419 
L 148.544477 135.544051 
L 148.375677 138.094684 
L 148.375677 140.645316 
L 148.544477 143.195949 
L 148.886694 145.746581 
L 149.411884 148.297214 
L 150.135877 150.847846 
L 150.726976 152.462816 
L 151.060017 153.398478 
L 152.188628 155.949111 
L 153.277608 157.943305 
L 153.580546 158.499743 
L 155.230002 161.050376 
L 155.82824 161.838582 
L 157.200449 163.601008 
L 158.378873 164.902695 
L 159.560765 166.151641 
L 160.929505 167.416457 
L 162.421676 168.702273 
L 163.480138 169.512334 
L 166.03065 171.252905 
L 166.03077 171.25298 
" style="fill:none;stroke:#fcffa4;"/>
   </g>
   <g id="matplotlib.axis_1">
    <g id="xtick_1">
     <g id="line2d_1">
      <defs>
       <path d="M 0 0 
L 0 -3.5 
" id="m7dc23a0692" style="stroke:#000000;stroke-width:0.8;"/>
      </defs>
      <g>
       <use style="stroke:#000000;stroke-width:0.8;" x="95.888378" xlink:href="#m7dc23a0692" y="275.905354"/>
      </g>
     </g>
     <g id="text_1">
      <!-- 0.0 -->
      <defs>
       <path d="M 31.78125 66.40625 
Q 24.171875 66.40625 20.328125 58.90625 
Q 16.5 51.421875 16.5 36.375 
Q 16.5 21.390625 20.328125 13.890625 
Q 24.171875 6.390625 31.78125 6.390625 
Q 39.453125 6.390625 43.28125 13.890625 
Q 47.125 21.390625 47.125 36.375 
Q 47.125 51.421875 43.28125 58.90625 
Q 39.453125 66.40625 31.78125 66.40625 
z
M 31.78125 74.21875 
Q 44.046875 74.21875 50.515625 64.515625 
Q 56.984375 54.828125 56.984375 36.375 
Q 56.984375 17.96875 50.515625 8.265625 
Q 44.046875 -1.421875 31.78125 -1.421875 
Q 19.53125 -1.421875 13.0625 8.265625 
Q 6.59375 17.96875 6.59375 36.375 
Q 6.59375 54.828125 13.0625 64.515625 
Q 19.53125 74.21875 31.78125 74.21875 
z
" id="DejaVuSans-30"/>
       <path d="M 10.6875 12.40625 
L 21 12.40625 
L 21 0 
L 10.6875 0 
z
" id="DejaVuSans-2e"/>
      </defs>
      <g transform="translate(89.527128 285.484104)scale(0.08 -0.08)">
       <use xlink:href="#DejaVuSans-30"/>
       <use x="63.623047" xlink:href="#DejaVuSans-2e"/>
       <use x="95.410156" xlink:href="#DejaVuSans-30"/>
      </g>
     </g>
    </g>
    <g id="xtick_2">
     <g id="line2d_2">
      <g>
       <use style="stroke:#000000;stroke-width:0.8;" x="159.654189" xlink:href="#m7dc23a0692" y="275.905354"/>
      </g>
     </g>
     <g id="text_2">
      <!-- 0.5 -->
      <defs>
       <path d="M 10.796875 72.90625 
L 49.515625 72.90625 
L 49.515625 64.59375 
L 19.828125 64.59375 
L 19.828125 46.734375 
Q 21.96875 47.46875 24.109375 47.828125 
Q 26.265625 48.1875 28.421875 48.1875 
Q 40.625 48.1875 47.75 41.5 
Q 54.890625 34.8125 54.890625 23.390625 
Q 54.890625 11.625 47.5625 5.09375 
Q 40.234375 -1.421875 26.90625 -1.421875 
Q 22.3125 -1.421875 17.546875 -0.640625 
Q 12.796875 0.140625 7.71875 1.703125 
L 7.71875 11.625 
Q 12.109375 9.234375 16.796875 8.0625 
Q 21.484375 6.890625 26.703125 6.890625 
Q 35.15625 6.890625 40.078125 11.328125 
Q 45.015625 15.765625 45.015625 23.390625 
Q 45.015625 31 40.078125 35.4375 
Q 35.15625 39.890625 26.703125 39.890625 
Q 22.75 39.890625 18.8125 39.015625 
Q 14.890625 38.140625 10.796875 36.28125 
z
" id="DejaVuSans-35"/>
      </defs>
      <g transform="translate(153.292939 285.484104)scale(0.08 -0.08)">
       <use xlink:href="#DejaVuSans-30"/>
       <use x="63.623047" xlink:href="#DejaVuSans-2e"/>
       <use x="95.410156" xlink:href="#DejaVuSans-35"/>
      </g>
     </g>
    </g>
    <g id="xtick_3">
     <g id="line2d_3">
      <g>
       <use style="stroke:#000000;stroke-width:0.8;" x="223.42" xlink:href="#m7dc23a0692" y="275.905354"/>
      </g>
     </g>
     <g id="text_3">
      <!-- 1.0 -->
      <defs>
       <path d="M 12.40625 8.296875 
L 28.515625 8.296875 
L 28.515625 63.921875 
L 10.984375 60.40625 
L 10.984375 69.390625 
L 28.421875 72.90625 
L 38.28125 72.90625 
L 38.28125 8.296875 
L 54.390625 8.296875 
L 54.390625 0 
L 12.40625 0 
z
" id="DejaVuSans-31"/>
      </defs>
      <g transform="translate(217.05875 285.484104)scale(0.08 -0.08)">
       <use xlink:href="#DejaVuSans-31"/>
       <use x="63.623047" xlink:href="#DejaVuSans-2e"/>
       <use x="95.410156" xlink:href="#DejaVuSans-30"/>
      </g>
     </g>
    </g>
    <g id="xtick_4">
     <g id="line2d_4">
      <g>
       <use style="stroke:#000000;stroke-width:0.8;" x="287.185811" xlink:href="#m7dc23a0692" y="275.905354"/>
      </g>
     </g>
     <g id="text_4">
      <!-- 1.5 -->
      <g transform="translate(280.824561 285.484104)scale(0.08 -0.08)">
       <use xlink:href="#DejaVuSans-31"/>
       <use x="63.623047" xlink:href="#DejaVuSans-2e"/>
       <use x="95.410156" xlink:href="#DejaVuSans-35"/>
      </g>
     </g>
    </g>
    <g id="xtick_5">
     <g id="line2d_5">
      <g>
       <use style="stroke:#000000;stroke-width:0.8;" x="350.951622" xlink:href="#m7dc23a0692" y="275.905354"/>
      </g>
     </g>
     <g id="text_5">
      <!-- 2.0 -->
      <defs>
       <path d="M 19.1875 8.296875 
L 53.609375 8.296875 
L 53.609375 0 
L 7.328125 0 
L 7.328125 8.296875 
Q 12.9375 14.109375 22.625 23.890625 
Q 32.328125 33.6875 34.8125 36.53125 
Q 39.546875 41.84375 41.421875 45.53125 
Q 43.3125 49.21875 43.3125 52.78125 
Q 43.3125 58.59375 39.234375 62.25 
Q 35.15625 65.921875 28.609375 65.921875 
Q 23.96875 65.921875 18.8125 64.3125 
Q 13.671875 62.703125 7.8125 59.421875 
L 7.8125 69.390625 
Q 13.765625 71.78125 18.9375 73 
Q 24.125 74.21875 28.421875 74.21875 
Q 39.75 74.21875 46.484375 68.546875 
Q 53.21875 62.890625 53.21875 53.421875 
Q 53.21875 48.921875 51.53125 44.890625 
Q 49.859375 40.875 45.40625 35.40625 
Q 44.1875 33.984375 37.640625 27.21875 
Q 31.109375 20.453125 19.1875 8.296875 
z
" id="DejaVuSans-32"/>
      </defs>
      <g transform="translate(344.590372 285.484104)scale(0.08 -0.08)">
       <use xlink:href="#DejaVuSans-32"/>
       <use x="63.623047" xlink:href="#DejaVuSans-2e"/>
       <use x="95.410156" xlink:href="#DejaVuSans-30"/>
      </g>
     </g>
    </g>
   </g>
   <g id="matplotlib.axis_2">
    <g id="ytick_1">
     <g id="line2d_6">
      <defs>
       <path d="M 0 0 
L 3.5 0 
" id="m741a1c35da" style="stroke:#000000;stroke-width:0.8;"/>
      </defs>
      <g>
       <use style="stroke:#000000;stroke-width:0.8;" x="86.884646" xlink:href="#m741a1c35da" y="266.901622"/>
      </g>
     </g>
     <g id="text_6">
      <!-- 0.0 -->
      <g transform="translate(70.662146 269.940997)scale(0.08 -0.08)">
       <use xlink:href="#DejaVuSans-30"/>
       <use x="63.623047" xlink:href="#DejaVuSans-2e"/>
       <use x="95.410156" xlink:href="#DejaVuSans-30"/>
      </g>
     </g>
    </g>
    <g id="ytick_2">
     <g id="line2d_7">
      <g>
       <use style="stroke:#000000;stroke-width:0.8;" x="86.884646" xlink:href="#m741a1c35da" y="203.135811"/>
      </g>
     </g>
     <g id="text_7">
      <!-- 0.5 -->
      <g transform="translate(70.662146 206.175186)scale(0.08 -0.08)">
       <use xlink:href="#DejaVuSans-30"/>
       <use x="63.623047" xlink:href="#DejaVuSans-2e"/>
       <use x="95.410156" xlink:href="#DejaVuSans-35"/>
      </g>
     </g>
    </g>
    <g id="ytick_3">
     <g id="line2d_8">
      <g>
       <use style="stroke:#000000;stroke-width:0.8;" x="86.884646" xlink:href="#m741a1c35da" y="139.37"/>
      </g>
     </g>
     <g id="text_8">
      <!-- 1.0 -->
      <g transform="translate(70.662146 142.409375)scale(0.08 -0.08)">
       <use xlink:href="#DejaVuSans-31"/>
       <use x="63.623047" xlink:href="#DejaVuSans-2e"/>
       <use x="95.410156" xlink:href="#DejaVuSans-30"/>
      </g>
     </g>
    </g>
    <g id="ytick_4">
     <g id="line2d_9">
      <g>
       <use style="stroke:#000000;stroke-width:0.8;" x="86.884646" xlink:href="#m741a1c35da" y="75.604189"/>
      </g>
     </g>
     <g id="text_9">
      <!-- 1.5 -->
      <g transform="translate(70.662146 78.643564)scale(0.08 -0.08)">
       <use xlink:href="#DejaVuSans-31"/>
       <use x="63.623047" xlink:href="#DejaVuSans-2e"/>
       <use x="95.410156" xlink:href="#DejaVuSans-35"/>
      </g>
     </g>
    </g>
    <g id="ytick_5">
     <g id="line2d_10">
      <g>
       <use style="stroke:#000000;stroke-width:0.8;" x="86.884646" xlink:href="#m741a1c35da" y="11.838378"/>
      </g>
     </g>
     <g id="text_10">
      <!-- 2.0 -->
      <g transform="translate(70.662146 14.877753)scale(0.08 -0.08)">
       <use xlink:href="#DejaVuSans-32"/>
       <use x="63.623047" xlink:href="#DejaVuSans-2e"/>
       <use x="95.410156" xlink:href="#DejaVuSans-30"/>
      </g>
     </g>
    </g>
   </g>
   <g id="PolyCollection_1">
    <path clip-path="url(#p8d4963ac7d)" d="M 287.185811 139.37 
L 287.185811 266.901622 
L 287.109002 266.901622 
L 286.878761 266.901622 
L 286.495642 266.901622 
L 285.960569 266.901622 
L 285.274829 266.901622 
L 284.440077 266.901622 
L 283.458321 266.901622 
L 282.331928 266.901622 
L 281.06361 266.901622 
L 279.656425 266.901622 
L 278.11376 266.901622 
L 276.439334 266.901622 
L 274.63718 266.901622 
L 272.711638 266.901622 
L 270.667349 266.901622 
L 268.509237 266.901622 
L 266.242501 266.901622 
L 263.872602 266.901622 
L 261.405249 266.901622 
L 258.846386 266.901622 
L 256.202178 266.901622 
L 253.478995 266.901622 
L 250.683397 266.901622 
L 247.822119 266.901622 
L 244.902055 266.901622 
L 241.930238 266.901622 
L 238.913828 266.901622 
L 235.860093 266.901622 
L 232.776388 266.901622 
L 229.670142 266.901622 
L 226.54884 266.901622 
L 223.42 266.901622 
L 220.29116 266.901622 
L 217.169858 266.901622 
L 214.063612 266.901622 
L 210.979907 266.901622 
L 207.926172 266.901622 
L 204.909762 266.901622 
L 201.937945 266.901622 
L 199.017881 266.901622 
L 196.156603 266.901622 
L 193.361005 266.901622 
L 190.637822 266.901622 
L 187.993614 266.901622 
L 185.434751 266.901622 
L 182.967398 266.901622 
L 180.597499 266.901622 
L 178.330763 266.901622 
L 176.172651 266.901622 
L 174.128362 266.901622 
L 172.20282 266.901622 
L 170.400666 266.901622 
L 168.72624 266.901622 
L 167.183575 266.901622 
L 165.77639 266.901622 
L 164.508072 266.901622 
L 163.381679 266.901622 
L 162.399923 266.901622 
L 161.565171 266.901622 
L 160.879431 266.901622 
L 160.344358 266.901622 
L 159.961239 266.901622 
L 159.730998 266.901622 
L 159.654189 266.901622 
L 159.730998 266.901622 
L 159.961239 266.901622 
L 160.344358 266.901622 
L 160.879431 266.901622 
L 161.565171 266.901622 
L 162.399923 266.901622 
L 163.381679 266.901622 
L 164.508072 266.901622 
L 165.77639 266.901622 
L 167.183575 266.901622 
L 168.72624 266.901622 
L 170.400666 266.901622 
L 172.20282 266.901622 
L 174.128362 266.901622 
L 176.172651 266.901622 
L 178.330763 266.901622 
L 180.597499 266.901622 
L 182.967398 266.901622 
L 185.434751 266.901622 
L 187.993614 266.901622 
L 190.637822 266.901622 
L 193.361005 266.901622 
L 196.156603 266.901622 
L 199.017881 266.901622 
L 201.937945 266.901622 
L 204.909762 266.901622 
L 207.926172 266.901622 
L 210.979907 266.901622 
L 214.063612 266.901622 
L 217.169858 266.901622 
L 220.29116 266.901622 
L 223.42 266.901622 
L 226.54884 266.901622 
L 229.670142 266.901622 
L 232.776388 266.901622 
L 235.860093 266.901622 
L 238.913828 266.901622 
L 241.930238 266.901622 
L 244.902055 266.901622 
L 247.822119 266.901622 
L 250.683397 266.901622 
L 253.478995 266.901622 
L 256.202178 266.901622 
L 258.846386 266.901622 
L 261.405249 266.901622 
L 263.872602 266.901622 
L 266.242501 266.901622 
L 268.509237 266.901622 
L 270.667349 266.901622 
L 272.711638 266.901622 
L 274.63718 266.901622 
L 276.439334 266.901622 
L 278.11376 266.901622 
L 279.656425 266.901622 
L 281.06361 266.901622 
L 282.331928 266.901622 
L 283.458321 266.901622 
L 284.440077 266.901622 
L 285.274829 266.901622 
L 285.960569 266.901622 
L 286.495642 266.901622 
L 286.878761 266.901622 
L 287.109002 266.901622 
L 287.109002 142.49884 
L 287.109002 142.49884 
L 286.878761 145.620142 
L 286.495642 148.726388 
L 285.960569 151.810093 
L 285.274829 154.863828 
L 284.440077 157.880238 
L 283.458321 160.852055 
L 282.331928 163.772119 
L 281.06361 166.633397 
L 279.656425 169.428995 
L 278.11376 172.152178 
L 276.439334 174.796386 
L 274.63718 177.355249 
L 272.711638 179.822602 
L 270.667349 182.192501 
L 268.509237 184.459237 
L 266.242501 186.617349 
L 263.872602 188.661638 
L 261.405249 190.58718 
L 258.846386 192.389334 
L 256.202178 194.06376 
L 253.478995 195.606425 
L 250.683397 197.01361 
L 247.822119 198.281928 
L 244.902055 199.408321 
L 241.930238 200.390077 
L 238.913828 201.224829 
L 235.860093 201.910569 
L 232.776388 202.445642 
L 229.670142 202.828761 
L 226.54884 203.059002 
L 223.42 203.135811 
L 220.29116 203.059002 
L 217.169858 202.828761 
L 214.063612 202.445642 
L 210.979907 201.910569 
L 207.926172 201.224829 
L 204.909762 200.390077 
L 201.937945 199.408321 
L 199.017881 198.281928 
L 196.156603 197.01361 
L 193.361005 195.606425 
L 190.637822 194.06376 
L 187.993614 192.389334 
L 185.434751 190.58718 
L 182.967398 188.661638 
L 180.597499 186.617349 
L 178.330763 184.459237 
L 176.172651 182.192501 
L 174.128362 179.822602 
L 172.20282 177.355249 
L 170.400666 174.796386 
L 168.72624 172.152178 
L 167.183575 169.428995 
L 165.77639 166.633397 
L 164.508072 163.772119 
L 163.381679 160.852055 
L 162.399923 157.880238 
L 161.565171 154.863828 
L 160.879431 151.810093 
L 160.344358 148.726388 
L 159.961239 145.620142 
L 159.730998 142.49884 
L 159.654189 139.37 
L 159.730998 136.24116 
L 159.961239 133.119858 
L 160.344358 130.013612 
L 160.879431 126.929907 
L 161.565171 123.876172 
L 162.399923 120.859762 
L 163.381679 117.887945 
L 164.508072 114.967881 
L 165.77639 112.106603 
L 167.183575 109.311005 
L 168.72624 106.587822 
L 170.400666 103.943614 
L 172.20282 101.384751 
L 174.128362 98.917398 
L 176.172651 96.547499 
L 178.330763 94.280763 
L 180.597499 92.122651 
L 182.967398 90.078362 
L 185.434751 88.15282 
L 187.993614 86.350666 
L 190.637822 84.67624 
L 193.361005 83.133575 
L 196.156603 81.72639 
L 199.017881 80.458072 
L 201.937945 79.331679 
L 204.909762 78.349923 
L 207.926172 77.515171 
L 210.979907 76.829431 
L 214.063612 76.294358 
L 217.169858 75.911239 
L 220.29116 75.680998 
L 223.42 75.604189 
L 226.54884 75.680998 
L 229.670142 75.911239 
L 232.776388 76.294358 
L 235.860093 76.829431 
L 238.913828 77.515171 
L 241.930238 78.349923 
L 244.902055 79.331679 
L 247.822119 80.458072 
L 250.683397 81.72639 
L 253.478995 83.133575 
L 256.202178 84.67624 
L 258.846386 86.350666 
L 261.405249 88.15282 
L 263.872602 90.078362 
L 266.242501 92.122651 
L 268.509237 94.280763 
L 270.667349 96.547499 
L 272.711638 98.917398 
L 274.63718 101.384751 
L 276.439334 103.943614 
L 278.11376 106.587822 
L 279.656425 109.311005 
L 281.06361 112.106603 
L 282.331928 114.967881 
L 283.458321 117.887945 
L 284.440077 120.859762 
L 285.274829 123.876172 
L 285.960569 126.929907 
L 286.495642 130.013612 
L 286.878761 133.119858 
L 287.109002 136.24116 
L 287.185811 139.37 
z
" style="fill-opacity:0.25;"/>
   </g>
   <g id="line2d_11">
    <path clip-path="url(#p8d4963ac7d)" d="M 287.185811 139.37 
L 287.109002 136.24116 
L 286.878761 133.119858 
L 286.495642 130.013612 
L 285.960569 126.929907 
L 285.274829 123.876172 
L 284.440077 120.859762 
L 283.458321 117.887945 
L 282.331928 114.967881 
L 281.06361 112.106603 
L 279.656425 109.311005 
L 278.11376 106.587822 
L 276.439334 103.943614 
L 274.63718 101.384751 
L 272.711638 98.917398 
L 270.667349 96.547499 
L 268.509237 94.280763 
L 266.242501 92.122651 
L 263.872602 90.078362 
L 261.405249 88.15282 
L 258.846386 86.350666 
L 256.202178 84.67624 
L 253.478995 83.133575 
L 250.683397 81.72639 
L 247.822119 80.458072 
L 244.902055 79.331679 
L 241.930238 78.349923 
L 238.913828 77.515171 
L 235.860093 76.829431 
L 232.776388 76.294358 
L 229.670142 75.911239 
L 226.54884 75.680998 
L 223.42 75.604189 
L 220.29116 75.680998 
L 217.169858 75.911239 
L 214.063612 76.294358 
L 210.979907 76.829431 
L 207.926172 77.515171 
L 204.909762 78.349923 
L 201.937945 79.331679 
L 199.017881 80.458072 
L 196.156603 81.72639 
L 193.361005 83.133575 
L 190.637822 84.67624 
L 187.993614 86.350666 
L 185.434751 88.15282 
L 182.967398 90.078362 
L 180.597499 92.122651 
L 178.330763 94.280763 
L 176.172651 96.547499 
L 174.128362 98.917398 
L 172.20282 101.384751 
L 170.400666 103.943614 
L 168.72624 106.587822 
L 167.183575 109.311005 
L 165.77639 112.106603 
L 164.508072 114.967881 
L 163.381679 117.887945 
L 162.399923 120.859762 
L 161.565171 123.876172 
L 160.879431 126.929907 
L 160.344358 130.013612 
L 159.961239 133.119858 
L 159.730998 136.24116 
L 159.654189 139.37 
L 159.730998 142.49884 
L 159.961239 145.620142 
L 160.344358 148.726388 
L 160.879431 151.810093 
L 161.565171 154.863828 
L 162.399923 157.880238 
L 163.381679 160.852055 
L 164.508072 163.772119 
L 165.77639 166.633397 
L 167.183575 169.428995 
L 168.72624 172.152178 
L 170.400666 174.796386 
L 172.20282 177.355249 
L 174.128362 179.822602 
L 176.172651 182.192501 
L 178.330763 184.459237 
L 180.597499 186.617349 
L 182.967398 188.661638 
L 185.434751 190.58718 
L 187.993614 192.389334 
L 190.637822 194.06376 
L 193.361005 195.606425 
L 196.156603 197.01361 
L 199.017881 198.281928 
L 201.937945 199.408321 
L 204.909762 200.390077 
L 207.926172 201.224829 
L 210.979907 201.910569 
L 214.063612 202.445642 
L 217.169858 202.828761 
L 220.29116 203.059002 
L 223.42 203.135811 
L 226.54884 203.059002 
L 229.670142 202.828761 
L 232.776388 202.445642 
L 235.860093 201.910569 
L 238.913828 201.224829 
L 241.930238 200.390077 
L 244.902055 199.408321 
L 247.822119 198.281928 
L 250.683397 197.01361 
L 253.478995 195.606425 
L 256.202178 194.06376 
L 258.846386 192.389334 
L 261.405249 190.58718 
L 263.872602 188.661638 
L 266.242501 186.617349 
L 268.509237 184.459237 
L 270.667349 182.192501 
L 272.711638 179.822602 
L 274.63718 177.355249 
L 276.439334 174.796386 
L 278.11376 172.152178 
L 279.656425 169.428995 
L 281.06361 166.633397 
L 282.331928 163.772119 
L 283.458321 160.852055 
L 284.440077 157.880238 
L 285.274829 154.863828 
L 285.960569 151.810093 
L 286.495642 148.726388 
L 286.878761 145.620142 
L 287.109002 142.49884 
L 287.109002 142.49884 
" style="fill:none;stroke:#000000;stroke-linecap:round;"/>
   </g>
   <g id="patch_3">
    <path d="M 86.884646 275.905354 
L 86.884646 2.834646 
" style="fill:none;stroke:#000000;stroke-linecap:square;stroke-linejoin:miter;"/>
   </g>
   <g id="patch_4">
    <path d="M 359.955354 275.905354 
L 359.955354 2.834646 
" style="fill:none;stroke:#000000;stroke-linecap:square;stroke-linejoin:miter;stroke-width:0.8;"/>
   </g>
   <g id="patch_5">
    <path d="M 86.884646 275.905354 
L 359.955354 275.905354 
" style="fill:none;stroke:#000000;stroke-linecap:square;stroke-linejoin:miter;"/>
   </g>
   <g id="patch_6">
    <path d="M 86.884646 2.834646 
L 359.955354 2.834646 
" style="fill:none;stroke:#000000;stroke-linecap:square;stroke-linejoin:miter;stroke-width:0.8;"/>
   </g>
  </g>
 </g>
 <defs>
  <clipPath id="p8d4963ac7d">
   <rect height="273.070709" width="273.070709" x="86.884646" y="2.834646"/>
  </clipPath>
 </defs>
</svg>
